<?xml version="1.0" encoding="UTF-8" standalone="no"?>
<svg
   xmlns:dc="http://purl.org/dc/elements/1.1/"
   xmlns:cc="http://creativecommons.org/ns#"
   xmlns:rdf="http://www.w3.org/1999/02/22-rdf-syntax-ns#"
   xmlns:svg="http://www.w3.org/2000/svg"
   xmlns="http://www.w3.org/2000/svg"
   xmlns:sodipodi="http://sodipodi.sourceforge.net/DTD/sodipodi-0.dtd"
   xmlns:inkscape="http://www.inkscape.org/namespaces/inkscape"
   width="201.09917mm"
   height="48.182278mm"
   viewBox="0 0 201.09917 48.182278"
   version="1.1"
   id="svg8"
   inkscape:version="1.0 (4035a4fb49, 2020-05-01)"
   sodipodi:docname="about_image1.svg"
   inkscape:export-filename="C:\Users\Andrew\Dropbox\My PC (DESKTOP-83TOIOB)\Documents\4. Enriching Career\1.1 Long term plan for Career\Web-portfolio\about_image1.png"
   inkscape:export-xdpi="96"
   inkscape:export-ydpi="96">
  <defs
     id="defs2">
    <pattern
       y="0"
       x="0"
       height="6"
       width="6"
       patternUnits="userSpaceOnUse"
       id="EMFhbasepattern" />
  </defs>
  <sodipodi:namedview
     fit-margin-bottom="0"
     fit-margin-right="0"
     fit-margin-left="0"
     fit-margin-top="0"
     id="base"
     pagecolor="#ffffff"
     bordercolor="#666666"
     borderopacity="1.0"
     inkscape:pageopacity="0.0"
     inkscape:pageshadow="2"
     inkscape:zoom="1.0601691"
     inkscape:cx="240.69763"
     inkscape:cy="145.59058"
     inkscape:document-units="mm"
     inkscape:current-layer="layer1"
     inkscape:document-rotation="0"
     showgrid="false"
     inkscape:window-width="1774"
     inkscape:window-height="1128"
     inkscape:window-x="11"
     inkscape:window-y="133"
     inkscape:window-maximized="0" />
  <metadata
     id="metadata5">
    <rdf:RDF>
      <cc:Work
         rdf:about="">
        <dc:format>image/svg+xml</dc:format>
        <dc:type
           rdf:resource="http://purl.org/dc/dcmitype/StillImage" />
        <dc:title></dc:title>
      </cc:Work>
    </rdf:RDF>
  </metadata>
  <g
     transform="translate(-5.6392132,-59.713911)"
     inkscape:label="Layer 1"
     inkscape:groupmode="layer"
     id="layer1">
    <path
       style="fill:#000000;stroke:#333333;stroke-width:0.477237;stroke-linecap:round;stroke-linejoin:round;stroke-miterlimit:4;stroke-dasharray:none"
       d=""
       id="path998"
       transform="scale(0.26458333)" />
    <g
       id="g2974"
       style="fill:#214478;fill-opacity:1;stroke:#5599ff;stroke-opacity:1"
       transform="translate(-0.49913419,-144.24978)">
      <rect
         ry="4.8676367"
         y="207.24667"
         x="6.6176229"
         height="43.767376"
         width="36.126503"
         id="rect2315"
         style="fill:#214478;fill-opacity:1;stroke:#5599ff;stroke-width:0.958551;stroke-linecap:round;stroke-linejoin:round;stroke-miterlimit:4;stroke-dasharray:none;stroke-opacity:1" />
      <path
         id="path2323"
         d="M 36.143387,212.59585 H 11.63956"
         style="fill:#214478;fill-opacity:1;stroke:#5599ff;stroke-width:1.34945;stroke-linecap:round;stroke-linejoin:miter;stroke-miterlimit:4;stroke-dasharray:none;stroke-opacity:1" />
      <path
         style="fill:#214478;fill-opacity:1;stroke:#5599ff;stroke-width:1.34945;stroke-linecap:round;stroke-linejoin:miter;stroke-miterlimit:4;stroke-dasharray:none;stroke-opacity:1"
         d="M 36.143387,217.09585 H 11.63956"
         id="path2323-6" />
      <path
         id="path2323-6-2"
         d="M 36.143387,221.59585 H 11.63956"
         style="fill:#214478;fill-opacity:1;stroke:#5599ff;stroke-width:1.34945;stroke-linecap:round;stroke-linejoin:miter;stroke-miterlimit:4;stroke-dasharray:none;stroke-opacity:1" />
      <path
         style="fill:#214478;fill-opacity:1;stroke:#5599ff;stroke-width:1.34945;stroke-linecap:round;stroke-linejoin:miter;stroke-miterlimit:4;stroke-dasharray:none;stroke-opacity:1"
         d="M 36.143387,226.09585 H 11.63956"
         id="path2323-4" />
      <path
         id="path2323-6-4"
         d="M 36.143387,230.59585 H 11.63956"
         style="fill:#214478;fill-opacity:1;stroke:#5599ff;stroke-width:1.34945;stroke-linecap:round;stroke-linejoin:miter;stroke-miterlimit:4;stroke-dasharray:none;stroke-opacity:1" />
      <path
         style="fill:#214478;fill-opacity:1;stroke:#5599ff;stroke-width:1.34945;stroke-linecap:round;stroke-linejoin:miter;stroke-miterlimit:4;stroke-dasharray:none;stroke-opacity:1"
         d="M 36.143387,235.09585 H 11.63956"
         id="path2323-6-2-1" />
      <path
         style="fill:#214478;fill-opacity:1;stroke:#5599ff;stroke-width:1.34945;stroke-linecap:round;stroke-linejoin:miter;stroke-miterlimit:4;stroke-dasharray:none;stroke-opacity:1"
         d="M 36.143387,239.59585 H 11.63956"
         id="path2323-6-4-3" />
      <path
         id="path2323-6-4-3-4"
         d="M 22.933453,244.09585 H 11.63956"
         style="fill:#214478;fill-opacity:1;stroke:#5599ff;stroke-width:1.349;stroke-linecap:round;stroke-linejoin:miter;stroke-miterlimit:4;stroke-dasharray:none;stroke-opacity:1" />
      <g
         style="fill:#214478;fill-opacity:1;stroke:#5599ff;stroke-width:0.588522;stroke-miterlimit:4;stroke-dasharray:none;stroke-dashoffset:0;stroke-opacity:1"
         transform="matrix(1.0195023,0,0,1.0195023,23.669504,66.715707)"
         id="g2494">
        <rect
           style="fill:#214478;fill-opacity:1;stroke:#5599ff;stroke-width:0.589187;stroke-linecap:round;stroke-linejoin:round;stroke-miterlimit:4;stroke-dasharray:none;stroke-dashoffset:0;stroke-opacity:1"
           id="rect2461"
           width="4.2604957"
           height="28.555933"
           x="121.41193"
           y="100.23766"
           ry="0.71558571"
           transform="matrix(0.75013114,0.6612891,-0.710151,0.7040494,0,0)" />
        <rect
           transform="matrix(0.78878942,0.61466353,-0.70633176,0.70788095,0,0)"
           ry="0.23674519"
           y="108.57438"
           x="120.40628"
           height="9.4474773"
           width="0.77809268"
           id="rect2461-6"
           style="fill:#214478;fill-opacity:1;stroke:#5599ff;stroke-width:0.590734;stroke-linecap:round;stroke-linejoin:round;stroke-miterlimit:4;stroke-dasharray:none;stroke-dashoffset:0;stroke-opacity:1" />
        <rect
           transform="matrix(0.77445281,0.63263168,-0.69539577,0.71862697,0,0)"
           ry="0.61345845"
           y="101.353"
           x="120.38241"
           height="3.800786"
           width="2.8104234"
           id="rect2461-7"
           style="fill:#214478;fill-opacity:1;stroke:#5599ff;stroke-width:0.589563;stroke-linecap:round;stroke-linejoin:round;stroke-miterlimit:4;stroke-dasharray:none;stroke-dashoffset:0;stroke-opacity:1" />
        <path
           style="fill:#214478;fill-opacity:1;stroke:#5599ff;stroke-width:0.588522;stroke-linecap:butt;stroke-linejoin:miter;stroke-miterlimit:4;stroke-dasharray:none;stroke-dashoffset:0;stroke-opacity:1"
           d="m 0.33072917,171.15234 -1.74813987,3.11831 c 0.118803,0.44961 0.3854013,0.69965 0.75595238,0.7087 L 2.763951,172.82961"
           id="path2488"
           sodipodi:nodetypes="cccc" />
      </g>
    </g>
    <g
       id="g3275"
       style="fill:#214478;fill-opacity:1;stroke:#5599ff;stroke-opacity:1"
       transform="translate(-0.49913419,-144.24978)">
      <rect
         ry="0.74101156"
         y="204.26805"
         x="151.68254"
         height="30.040388"
         width="48.088753"
         id="rect2710"
         style="fill:#214478;fill-opacity:1;stroke:#5599ff;stroke-width:0.60872;stroke-linecap:round;stroke-linejoin:round;stroke-miterlimit:4;stroke-dasharray:none;stroke-opacity:1" />
      <path
         sodipodi:nodetypes="ccccccccc"
         id="path2717"
         d="m 144.4494,250.61304 6.89807,-14.93006 c 0.40768,-0.32668 0.77564,-0.67983 1.70089,-0.66146 l 45.73512,0.0945 c 0.99878,0.12782 0.98632,0.45789 1.13393,0.75595 l 6.99256,14.93006 c 0.0436,0.29196 0.14362,0.57453 -0.85045,1.03944 h -60.57069 c -0.73742,-0.214 -1.01325,-0.65881 -1.03943,-1.22843 z"
         style="fill:#214478;fill-opacity:1;stroke:#5599ff;stroke-width:0.609;stroke-linecap:butt;stroke-linejoin:miter;stroke-miterlimit:4;stroke-dasharray:none;stroke-opacity:1" />
      <path
         sodipodi:nodetypes="ccccc"
         id="path2719"
         d="m 166.64739,250.56576 0.93544,-5.27857 h 16.37026 l 0.8018,5.34539 z"
         style="fill:#214478;fill-opacity:1;stroke:#5599ff;stroke-width:0.609;stroke-linecap:butt;stroke-linejoin:round;stroke-miterlimit:4;stroke-dasharray:none;stroke-opacity:1" />
      <path
         id="path2721"
         d="m 167.11511,249.22942 h 17.50615"
         style="fill:#214478;fill-opacity:1;stroke:#5599ff;stroke-width:0.609;stroke-linecap:butt;stroke-linejoin:miter;stroke-miterlimit:4;stroke-dasharray:none;stroke-opacity:1" />
      <path
         id="path2723"
         d="m 175.76796,249.36305 -0.0668,1.1359"
         style="fill:#214478;fill-opacity:1;stroke:#5599ff;stroke-width:0.609;stroke-linecap:butt;stroke-linejoin:miter;stroke-miterlimit:4;stroke-dasharray:none;stroke-opacity:1" />
      <path
         id="path2725"
         d="m 150.21031,243.88403 2.73951,-6.28084 45.56946,-0.0668 2.60587,6.48128 z"
         style="fill:#214478;fill-opacity:1;stroke:#5599ff;stroke-width:0.609;stroke-linecap:butt;stroke-linejoin:round;stroke-miterlimit:4;stroke-dasharray:none;stroke-opacity:1" />
      <rect
         ry="0.67686421"
         y="206.14542"
         x="153.7489"
         height="24.490307"
         width="43.861584"
         id="rect2708"
         style="fill:#214478;fill-opacity:1;stroke:#5599ff;stroke-width:0.58365;stroke-linecap:round;stroke-linejoin:round;stroke-miterlimit:4;stroke-dasharray:none;stroke-opacity:1" />
    </g>
    <g
       id="g3068"
       style="fill:#214478;stroke:#5599ff"
       transform="translate(-0.49913419,-144.24978)">
      <rect
         transform="matrix(0.71830848,-0.69572475,0.78301731,0.62199991,0,0)"
         y="199.87061"
         x="-133.6443"
         height="11.318576"
         width="2.2347472"
         id="rect3027"
         style="fill:#214478;fill-opacity:1;stroke:#5599ff;stroke-width:0.83191;stroke-linecap:round;stroke-linejoin:round;stroke-miterlimit:4;stroke-dasharray:none;stroke-dashoffset:0;stroke-opacity:1" />
      <path
         sodipodi:nodetypes="ccccccc"
         id="path2527"
         d="m 61.582301,247.164 h 69.358629 l 1.70089,2.64583 c 0.059,0.80824 -0.32605,1.42616 -1.5119,1.70089 H 60.637361 c -0.255489,-0.24731 -0.922812,0.0545 -0.188987,-1.5119 z"
         style="fill:#214478;fill-opacity:1;stroke:#5599ff;stroke-width:0.6;stroke-linecap:butt;stroke-linejoin:miter;stroke-miterlimit:4;stroke-dasharray:none;stroke-opacity:1" />
      <path
         sodipodi:nodetypes="cccccc"
         id="path2529"
         d="M 61.582301,247.164 64.7951,225.80834 c 0.224334,-0.73239 0.974452,-1.11425 2.267857,-1.13392 h 59.153273 c 1.05817,0.13875 1.9058,0.48805 2.07887,1.5119 l 2.64583,20.97768"
         style="fill:#214478;fill-opacity:1;stroke:#5599ff;stroke-width:0.6;stroke-linecap:butt;stroke-linejoin:miter;stroke-miterlimit:4;stroke-dasharray:none;stroke-opacity:1" />
      <path
         id="path2531"
         d="m 67.440933,243.9512 h 58.019337 l -1.32291,-14.36309 H 69.141825 Z"
         style="fill:#214478;fill-opacity:1;stroke:#5599ff;stroke-width:0.6;stroke-linecap:butt;stroke-linejoin:miter;stroke-miterlimit:4;stroke-dasharray:none;stroke-opacity:1" />
      <path
         sodipodi:nodetypes="cccc"
         id="path2533"
         d="m 77.457301,224.67442 v -18.14286 h 37.608629 l -0.0473,18.09561"
         style="fill:#214478;fill-opacity:1;stroke:#5599ff;stroke-width:0.6;stroke-linecap:butt;stroke-linejoin:miter;stroke-miterlimit:4;stroke-dasharray:none;stroke-opacity:1" />
      <path
         id="path2535"
         d="M 82.559981,211.44525 H 110.34123"
         style="fill:#214478;fill-opacity:1;stroke:#5599ff;stroke-width:0.6;stroke-linecap:butt;stroke-linejoin:miter;stroke-miterlimit:4;stroke-dasharray:none;stroke-opacity:1" />
      <path
         id="path2537"
         d="M 82.559981,214.65805 H 110.15224"
         style="fill:#214478;fill-opacity:1;stroke:#5599ff;stroke-width:0.6;stroke-linecap:butt;stroke-linejoin:miter;stroke-miterlimit:4;stroke-dasharray:none;stroke-opacity:1" />
      <path
         id="path2539"
         d="M 82.559981,217.87084 H 110.24673"
         style="fill:#214478;fill-opacity:1;stroke:#5599ff;stroke-width:0.6;stroke-linecap:butt;stroke-linejoin:miter;stroke-miterlimit:4;stroke-dasharray:none;stroke-opacity:1" />
      <path
         id="path2541"
         d="M 82.370992,221.17813 H 110.43572"
         style="fill:#214478;fill-opacity:1;stroke:#5599ff;stroke-width:0.6;stroke-linecap:butt;stroke-linejoin:miter;stroke-miterlimit:4;stroke-dasharray:none;stroke-opacity:1" />
      <path
         sodipodi:nodetypes="ccc"
         id="path2543"
         d="m 71.031705,224.57992 -0.09449,-3.59077 h 6.614583"
         style="fill:#214478;fill-opacity:1;stroke:#5599ff;stroke-width:0.6;stroke-linecap:butt;stroke-linejoin:miter;stroke-miterlimit:4;stroke-dasharray:none;stroke-opacity:1" />
      <path
         sodipodi:nodetypes="ccc"
         id="path2545"
         d="m 115.11317,221.27263 h 6.47285 v 3.30729"
         style="fill:#214478;fill-opacity:1;stroke:#5599ff;stroke-width:0.6;stroke-linecap:butt;stroke-linejoin:miter;stroke-miterlimit:4;stroke-dasharray:none;stroke-opacity:1" />
      <path
         id="path2547"
         d="m 121.63327,222.73729 h 1.79538 v 1.93713"
         style="fill:#214478;fill-opacity:1;stroke:#5599ff;stroke-width:0.6;stroke-linecap:butt;stroke-linejoin:miter;stroke-miterlimit:4;stroke-dasharray:none;stroke-opacity:1" />
      <path
         sodipodi:nodetypes="cc"
         id="path2549"
         d="M 77.551792,220.98915 H 70.937211"
         style="fill:#214478;fill-opacity:1;stroke:#5599ff;stroke-width:0.6;stroke-linecap:butt;stroke-linejoin:miter;stroke-miterlimit:4;stroke-dasharray:none;stroke-opacity:1" />
      <rect
         ry="0.71229959"
         y="212.33208"
         x="59.681549"
         height="5.5260124"
         width="3.5180287"
         id="rect2555"
         style="fill:#214478;fill-opacity:1;stroke:#5599ff;stroke-width:0.6;stroke-linecap:round;stroke-linejoin:round;stroke-miterlimit:4;stroke-dasharray:none;stroke-opacity:1" />
      <path
         sodipodi:nodetypes="ccccccc"
         id="path2557"
         d="m 82.728284,241.77002 26.794786,-0.0167 -0.006,-1.5897 c -0.0366,-0.55845 -0.44653,-0.4947 -0.8032,-0.51971 H 83.436992 c -0.430817,0.003 -0.633589,0.2055 -0.708708,0.51971 z"
         style="fill:#214478;fill-opacity:1;stroke:#5599ff;stroke-width:0.6;stroke-linecap:butt;stroke-linejoin:miter;stroke-miterlimit:4;stroke-dasharray:none;stroke-opacity:1" />
      <path
         sodipodi:nodetypes="ccccccc"
         id="path2559"
         d="m 76.130478,241.71183 4.873092,0.0107 v -1.40645 c -0.06895,-0.35542 -0.272681,-0.57607 -0.609176,-0.66394 l -3.504243,-0.008 c -0.412713,0.0602 -0.660895,0.33118 -0.739178,0.69238 z"
         style="fill:#214478;fill-opacity:1;stroke:#5599ff;stroke-width:0.6;stroke-linecap:butt;stroke-linejoin:miter;stroke-miterlimit:4;stroke-dasharray:none;stroke-opacity:1" />
      <path
         style="fill:#214478;fill-opacity:1;stroke:#5599ff;stroke-width:0.6;stroke-linecap:butt;stroke-linejoin:miter;stroke-miterlimit:4;stroke-dasharray:none;stroke-opacity:1"
         d="m 69.630477,241.71183 4.873092,0.0107 v -1.40645 c -0.06895,-0.35542 -0.272681,-0.57607 -0.609176,-0.66394 l -3.504243,-0.008 c -0.412713,0.0602 -0.660895,0.33118 -0.739178,0.69238 z"
         id="path2559-9"
         sodipodi:nodetypes="ccccccc" />
      <path
         style="fill:#214478;fill-opacity:1;stroke:#5599ff;stroke-width:0.6;stroke-linecap:butt;stroke-linejoin:miter;stroke-miterlimit:4;stroke-dasharray:none;stroke-opacity:1"
         d="m 118.05374,241.71183 4.87309,0.0107 v -1.40645 c -0.069,-0.35542 -0.27268,-0.57607 -0.60917,-0.66394 l -3.50425,-0.008 c -0.41271,0.0602 -0.66089,0.33118 -0.73917,0.69238 z"
         id="path2559-0"
         sodipodi:nodetypes="ccccccc" />
      <path
         sodipodi:nodetypes="ccccccc"
         id="path2559-9-7"
         d="m 111.55374,241.71183 4.87309,0.0107 v -1.40645 c -0.069,-0.35542 -0.27268,-0.57607 -0.60917,-0.66394 l -3.50425,-0.008 c -0.41271,0.0602 -0.66089,0.33118 -0.73918,0.69238 z"
         style="fill:#214478;fill-opacity:1;stroke:#5599ff;stroke-width:0.6;stroke-linecap:butt;stroke-linejoin:miter;stroke-miterlimit:4;stroke-dasharray:none;stroke-opacity:1" />
      <path
         style="fill:#214478;fill-opacity:1;stroke:#5599ff;stroke-width:0.6;stroke-linecap:butt;stroke-linejoin:miter;stroke-miterlimit:4;stroke-dasharray:none;stroke-opacity:1"
         d="m 77.730477,237.64214 4.873091,0.0107 v -1.40645 c -0.06895,-0.35542 -0.27268,-0.57607 -0.609175,-0.66394 l -3.504243,-0.008 c -0.412713,0.0602 -0.660895,0.33118 -0.739178,0.69238 z"
         id="path2559-5"
         sodipodi:nodetypes="ccccccc" />
      <path
         sodipodi:nodetypes="ccccccc"
         id="path2559-9-5"
         d="m 71.230477,237.64214 4.873092,0.0107 v -1.40645 c -0.06895,-0.35542 -0.272681,-0.57607 -0.609176,-0.66394 l -3.504243,-0.008 c -0.412713,0.0602 -0.660895,0.33118 -0.739178,0.69238 z"
         style="fill:#214478;fill-opacity:1;stroke:#5599ff;stroke-width:0.6;stroke-linecap:butt;stroke-linejoin:miter;stroke-miterlimit:4;stroke-dasharray:none;stroke-opacity:1" />
      <path
         style="fill:#214478;fill-opacity:1;stroke:#5599ff;stroke-width:0.6;stroke-linecap:butt;stroke-linejoin:miter;stroke-miterlimit:4;stroke-dasharray:none;stroke-opacity:1"
         d="m 90.730477,237.64183 4.873092,0.0107 v -1.40645 c -0.06895,-0.35542 -0.27268,-0.57607 -0.609175,-0.66394 l -3.504244,-0.008 c -0.412713,0.0602 -0.660895,0.33118 -0.739178,0.69238 z"
         id="path2559-8"
         sodipodi:nodetypes="ccccccc" />
      <path
         sodipodi:nodetypes="ccccccc"
         id="path2559-9-6"
         d="m 84.230477,237.64183 4.873092,0.0107 v -1.40645 c -0.06895,-0.35542 -0.272681,-0.57607 -0.609176,-0.66394 l -3.504243,-0.008 c -0.412713,0.0602 -0.660895,0.33118 -0.739178,0.69238 z"
         style="fill:#214478;fill-opacity:1;stroke:#5599ff;stroke-width:0.6;stroke-linecap:butt;stroke-linejoin:miter;stroke-miterlimit:4;stroke-dasharray:none;stroke-opacity:1" />
      <path
         sodipodi:nodetypes="ccccccc"
         id="path2559-5-1"
         d="m 104.23048,237.64214 4.87309,0.0107 v -1.40645 c -0.069,-0.35542 -0.27268,-0.57607 -0.60918,-0.66394 l -3.50424,-0.008 c -0.41271,0.0602 -0.66089,0.33118 -0.73918,0.69238 z"
         style="fill:#214478;fill-opacity:1;stroke:#5599ff;stroke-width:0.6;stroke-linecap:butt;stroke-linejoin:miter;stroke-miterlimit:4;stroke-dasharray:none;stroke-opacity:1" />
      <path
         style="fill:#214478;fill-opacity:1;stroke:#5599ff;stroke-width:0.6;stroke-linecap:butt;stroke-linejoin:miter;stroke-miterlimit:4;stroke-dasharray:none;stroke-opacity:1"
         d="m 97.730477,237.64214 4.873093,0.0107 v -1.40645 c -0.069,-0.35542 -0.27268,-0.57607 -0.60918,-0.66394 l -3.50424,-0.008 c -0.412713,0.0602 -0.660895,0.33118 -0.739178,0.69238 z"
         id="path2559-9-5-0"
         sodipodi:nodetypes="ccccccc" />
      <path
         sodipodi:nodetypes="ccccccc"
         id="path2559-8-2"
         d="m 117.23048,237.64183 4.87309,0.0107 v -1.40645 c -0.069,-0.35542 -0.27268,-0.57607 -0.60918,-0.66394 l -3.50424,-0.008 c -0.41271,0.0602 -0.66089,0.33118 -0.73918,0.69238 z"
         style="fill:#214478;fill-opacity:1;stroke:#5599ff;stroke-width:0.6;stroke-linecap:butt;stroke-linejoin:miter;stroke-miterlimit:4;stroke-dasharray:none;stroke-opacity:1" />
      <path
         style="fill:#214478;fill-opacity:1;stroke:#5599ff;stroke-width:0.6;stroke-linecap:butt;stroke-linejoin:miter;stroke-miterlimit:4;stroke-dasharray:none;stroke-opacity:1"
         d="m 110.73048,237.64183 4.87309,0.0107 v -1.40645 c -0.069,-0.35542 -0.27268,-0.57607 -0.60918,-0.66394 l -3.50424,-0.008 c -0.41271,0.0602 -0.6609,0.33118 -0.73918,0.69238 z"
         id="path2559-9-6-0"
         sodipodi:nodetypes="ccccccc" />
      <path
         sodipodi:nodetypes="ccccccc"
         id="path2559-5-10"
         d="m 77.730477,233.54594 4.873092,0.0107 v -1.40645 c -0.06895,-0.35542 -0.272681,-0.57607 -0.609176,-0.66394 l -3.504243,-0.008 c -0.412713,0.0602 -0.660895,0.33118 -0.739178,0.69238 z"
         style="fill:#214478;fill-opacity:1;stroke:#5599ff;stroke-width:0.6;stroke-linecap:butt;stroke-linejoin:miter;stroke-miterlimit:4;stroke-dasharray:none;stroke-opacity:1" />
      <path
         style="fill:#214478;fill-opacity:1;stroke:#5599ff;stroke-width:0.6;stroke-linecap:butt;stroke-linejoin:miter;stroke-miterlimit:4;stroke-dasharray:none;stroke-opacity:1"
         d="m 71.230477,233.54594 4.873092,0.0107 v -1.40645 c -0.06895,-0.35542 -0.272681,-0.57607 -0.609176,-0.66394 l -3.504243,-0.008 c -0.412713,0.0602 -0.660895,0.33118 -0.739178,0.69238 z"
         id="path2559-9-5-6"
         sodipodi:nodetypes="ccccccc" />
      <path
         sodipodi:nodetypes="ccccccc"
         id="path2559-8-9"
         d="m 90.730477,233.54563 4.873093,0.0107 v -1.40645 c -0.06895,-0.35542 -0.27268,-0.57607 -0.609176,-0.66394 l -3.504243,-0.008 c -0.412714,0.0602 -0.660895,0.33118 -0.739178,0.69238 z"
         style="fill:#214478;fill-opacity:1;stroke:#5599ff;stroke-width:0.6;stroke-linecap:butt;stroke-linejoin:miter;stroke-miterlimit:4;stroke-dasharray:none;stroke-opacity:1" />
      <path
         style="fill:#214478;fill-opacity:1;stroke:#5599ff;stroke-width:0.6;stroke-linecap:butt;stroke-linejoin:miter;stroke-miterlimit:4;stroke-dasharray:none;stroke-opacity:1"
         d="m 84.230477,233.54563 4.873093,0.0107 v -1.40645 c -0.06895,-0.35542 -0.272682,-0.57607 -0.609177,-0.66394 l -3.504243,-0.008 c -0.412713,0.0602 -0.660895,0.33118 -0.739178,0.69238 z"
         id="path2559-9-6-1"
         sodipodi:nodetypes="ccccccc" />
      <path
         style="fill:#214478;fill-opacity:1;stroke:#5599ff;stroke-width:0.6;stroke-linecap:butt;stroke-linejoin:miter;stroke-miterlimit:4;stroke-dasharray:none;stroke-opacity:1"
         d="m 104.23048,233.54594 4.87309,0.0107 v -1.40645 c -0.069,-0.35542 -0.27268,-0.57607 -0.60918,-0.66394 l -3.50424,-0.008 c -0.41271,0.0602 -0.66089,0.33118 -0.73918,0.69238 z"
         id="path2559-5-1-3"
         sodipodi:nodetypes="ccccccc" />
      <path
         sodipodi:nodetypes="ccccccc"
         id="path2559-9-5-0-4"
         d="m 97.730478,233.54594 4.873092,0.0107 v -1.40645 c -0.069,-0.35542 -0.27268,-0.57607 -0.60918,-0.66394 l -3.50424,-0.008 c -0.412713,0.0602 -0.660895,0.33118 -0.739177,0.69238 z"
         style="fill:#214478;fill-opacity:1;stroke:#5599ff;stroke-width:0.6;stroke-linecap:butt;stroke-linejoin:miter;stroke-miterlimit:4;stroke-dasharray:none;stroke-opacity:1" />
      <path
         style="fill:#214478;fill-opacity:1;stroke:#5599ff;stroke-width:0.6;stroke-linecap:butt;stroke-linejoin:miter;stroke-miterlimit:4;stroke-dasharray:none;stroke-opacity:1"
         d="m 117.23048,233.54563 4.87309,0.0107 v -1.40645 c -0.069,-0.35542 -0.27268,-0.57607 -0.60918,-0.66394 l -3.50424,-0.008 c -0.41271,0.0602 -0.66089,0.33118 -0.73918,0.69238 z"
         id="path2559-8-2-4"
         sodipodi:nodetypes="ccccccc" />
      <path
         sodipodi:nodetypes="ccccccc"
         id="path2559-9-6-0-9"
         d="m 110.73048,233.54563 4.87309,0.0107 v -1.40645 c -0.069,-0.35542 -0.27268,-0.57607 -0.60918,-0.66394 l -3.50424,-0.008 c -0.41271,0.0602 -0.6609,0.33118 -0.73918,0.69238 z"
         style="fill:#214478;fill-opacity:1;stroke:#5599ff;stroke-width:0.6;stroke-linecap:butt;stroke-linejoin:miter;stroke-miterlimit:4;stroke-dasharray:none;stroke-opacity:1" />
      <rect
         ry="0"
         y="220.98915"
         x="70.937218"
         height="3.6852713"
         width="6.520083"
         id="rect2983"
         style="fill:#214478;fill-opacity:1;stroke:#5599ff;stroke-width:0.600001;stroke-linecap:round;stroke-linejoin:round;stroke-miterlimit:4;stroke-dasharray:none;stroke-dashoffset:0;stroke-opacity:1" />
      <rect
         y="222.78453"
         x="69.519806"
         height="1.79539"
         width="1.511904"
         id="rect2985"
         style="fill:#214478;fill-opacity:1;stroke:#5599ff;stroke-width:0.600001;stroke-linecap:round;stroke-linejoin:round;stroke-miterlimit:4;stroke-dasharray:none;stroke-dashoffset:0;stroke-opacity:1" />
      <rect
         y="221.27263"
         x="115.11317"
         height="3.3072898"
         width="6.4728498"
         id="rect2987"
         style="fill:#214478;fill-opacity:1;stroke:#5599ff;stroke-width:0.600001;stroke-linecap:round;stroke-linejoin:round;stroke-miterlimit:4;stroke-dasharray:none;stroke-dashoffset:0;stroke-opacity:1" />
      <rect
         y="222.73729"
         x="121.63327"
         height="1.93713"
         width="1.79538"
         id="rect2989"
         style="fill:#214478;fill-opacity:1;stroke:#5599ff;stroke-width:0.600001;stroke-linecap:round;stroke-linejoin:round;stroke-miterlimit:4;stroke-dasharray:none;stroke-dashoffset:0;stroke-opacity:1" />
    </g>
  </g>
</svg>
