<?xml version="1.0" encoding="UTF-8" standalone="no"?>
<svg
   xmlns:dc="http://purl.org/dc/elements/1.1/"
   xmlns:cc="http://creativecommons.org/ns#"
   xmlns:rdf="http://www.w3.org/1999/02/22-rdf-syntax-ns#"
   xmlns:svg="http://www.w3.org/2000/svg"
   xmlns="http://www.w3.org/2000/svg"
   xmlns:sodipodi="http://sodipodi.sourceforge.net/DTD/sodipodi-0.dtd"
   xmlns:inkscape="http://www.inkscape.org/namespaces/inkscape"
   sodipodi:docname="theif_game_image.svg"
   inkscape:version="1.0 (4035a4fb49, 2020-05-01)"
   id="svg1449"
   version="1.1"
   viewBox="0 0 36.986889 47.527157"
   height="47.527157mm"
   width="36.986889mm">
  <defs
     id="defs1443">
    <clipPath
       id="clipPath2547"
       clipPathUnits="userSpaceOnUse">
      <path
         d="m 86.331682,62.343482 v 8.052737 h 2.261359 v -8.052737 z"
         style="fill:#ff0000;fill-opacity:1;fill-rule:nonzero;stroke:none;stroke-width:0.264583"
         id="path2549" />
    </clipPath>
    <clipPath
       id="clipPath2753"
       clipPathUnits="userSpaceOnUse">
      <path
         d="m 90.670436,61.597273 c 0.0042,0.05658 0.0062,0.103478 -5.3e-4,0.109037 -0.111228,0.09194 -0.287202,0.02484 -0.430979,0.03721 -0.0033,-0.0062 -0.0074,-0.01246 -0.01085,-0.0186 -5.29e-4,0.03114 -0.0046,0.06118 -0.02222,0.08733 -0.07308,0.108678 -0.161002,0.12564 -0.245981,0.103355 0.02896,0.130278 0.0526,0.261411 0.05943,0.395324 -0.152556,0.02598 -0.302609,0.08093 -0.457337,0.07803 -0.03196,-5.29e-4 -0.03681,-0.146881 -0.04341,-0.16278 -0.01429,-0.03439 -0.0311,-0.06661 -0.04961,-0.09767 -0.07929,0.06116 -0.15449,0.130027 -0.238228,0.182933 v 2.088761 h 2.01228 v -2.80293 z"
         style="fill:#ff0000;fill-opacity:1;fill-rule:nonzero;stroke:none;stroke-width:0.264583"
         id="path2755" />
    </clipPath>
    <clipPath
       id="clipPath2775"
       clipPathUnits="userSpaceOnUse">
      <path
         d="m 71.149146,57.708107 v 3.339846 H 89.93973 c 0.0045,-0.01228 0.0047,-0.01252 0.0083,-0.02222 -0.0065,-0.0064 -0.01304,-0.01302 -0.02016,-0.0181 -0.01789,-0.0127 -0.04556,-0.0109 -0.05943,-0.0279 -0.06834,-0.08374 -0.121698,-0.178782 -0.182419,-0.268201 0.06008,-0.06531 0.107087,-0.147034 0.176733,-0.200506 0.0097,-0.03894 0.06365,-0.0623 0.142627,-0.07958 0.0013,-0.04848 0.0019,-0.100158 0,-0.144177 -0.01037,-0.23363 0.09369,-0.349716 0.207224,-0.349332 0.112765,2.64e-4 0.234812,0.116234 0.264583,0.345199 0.06887,0.01058 0.135427,0.02622 0.19327,0.06305 0.0488,0.03106 0.0028,0.115546 0.0083,0.173117 0.0016,0.01699 0.01236,0.03254 0.01291,0.04961 0.0013,0.03787 -0.0047,0.07587 -0.0072,0.113686 -0.0093,0.140804 -0.06078,0.139544 -0.124539,0.09095 -0.0047,0.01151 -0.0039,0.01079 -0.0083,0.0217 0.01714,0.0141 0.02739,0.05049 0.04289,0.06976 0.0669,0.05808 0.159978,0.113467 0.231511,0.182933 h 1.923396 v -3.339846 z m 19.473231,2.823599 c -7.94e-4,-0.0032 -0.0046,0.0029 -0.0098,0.01497 l 0.0098,0.0011 c 1.69e-4,-0.0026 0.0011,-0.01225 0,-0.01603 z m -0.748276,0.383439 c -0.007,-0.0042 -0.0021,0.02 0.0052,0.02376 0.01312,0.0069 0.02838,0.0145 0.04341,0.01913 -0.01624,-0.01431 -0.02936,-0.03127 -0.04857,-0.04289 z"
         style="fill:#ff0000;fill-opacity:1;fill-rule:nonzero;stroke:none;stroke-width:0.264583"
         id="path2777" />
    </clipPath>
    <clipPath
       id="clipPath2785"
       clipPathUnits="userSpaceOnUse">
      <path
         d="m 71.049409,60.260921 v 3.245797 H 92.56386 v -3.245797 h -2.092381 c 0.0013,0.0081 0.0046,0.01376 0.0057,0.02222 0.06887,0.01058 0.135427,0.02622 0.19327,0.06304 0.0488,0.03106 0.0028,0.115547 0.0083,0.173117 0.0016,0.01699 0.01236,0.03254 0.01291,0.04961 0.0013,0.03787 -0.0047,0.07587 -0.0072,0.113686 -0.0093,0.140803 -0.06078,0.139544 -0.12454,0.09095 -0.0047,0.01151 -0.0039,0.0108 -0.0083,0.0217 0.01714,0.0141 0.02739,0.0505 0.04289,0.06977 0.10927,0.09487 0.296884,0.17771 0.32711,0.337447 0.01193,0.06301 -0.01011,0.128296 -0.01498,0.192235 -0.01405,0.183867 -0.08535,0.119282 -0.166396,0.0041 -0.0033,0.04838 -0.02813,0.09192 -0.07545,0.123507 0.0093,0.09353 0.01479,0.176001 0.0052,0.183968 -0.111229,0.09194 -0.287203,0.02484 -0.43098,0.03721 -0.0034,-0.0063 -0.0073,-0.01286 -0.01085,-0.01913 -5.29e-4,0.03134 -0.0045,0.06155 -0.02222,0.08785 -0.07308,0.10868 -0.161002,0.12564 -0.245981,0.103354 0.02896,0.130279 0.0526,0.261411 0.05943,0.395325 -0.152556,0.02598 -0.302606,0.08093 -0.457337,0.07803 -0.03196,-5.29e-4 -0.03681,-0.146881 -0.04341,-0.16278 -0.01429,-0.03436 -0.03277,-0.06553 -0.05116,-0.09664 -0.108841,0.08417 -0.209407,0.184076 -0.336931,0.233061 -0.0049,0.0019 -0.0089,-0.0011 -0.01344,-0.0016 -0.02175,0.01638 -0.06436,-0.03503 -0.09405,-0.05219 -0.137501,-0.07945 -0.228999,-0.179316 -0.316259,-0.311091 -0.02029,-0.03064 -0.03717,-0.06343 -0.05581,-0.09509 -0.0086,-0.0177 -0.01722,-0.03554 -0.02582,-0.05323 -0.08089,-0.165783 -0.05647,-0.296966 0.01138,-0.371555 -1.56e-4,-0.0033 -7.94e-4,-0.006 -0.0011,-0.0093 -0.0095,-0.233672 0.09308,-0.349824 0.205672,-0.349334 0.08351,2.64e-4 0.17204,0.0654 0.225311,0.19327 0.06754,-0.01971 0.15617,-0.01101 0.263033,0.05064 -0.0061,-0.0241 -0.0122,-0.04818 -0.0181,-0.07235 -0.0034,-0.01445 -0.02246,-0.03975 -0.0083,-0.04392 0.155612,-0.04558 0.318371,-0.06235 0.477488,-0.09354 0.03558,0.03749 0.07158,0.0744 0.10749,0.11162 -0.0047,-0.09298 -0.02228,-0.0072 0.05994,-0.23926 -0.0065,-0.0064 -0.01304,-0.01302 -0.02016,-0.0181 -0.01789,-0.0127 -0.04556,-0.0109 -0.05943,-0.0279 -0.06834,-0.08374 -0.121698,-0.178782 -0.18242,-0.268201 0.06008,-0.06531 0.107088,-0.147034 0.176734,-0.200506 0.0097,-0.03894 0.06365,-0.0623 0.142626,-0.07958 0.0013,-0.04848 0.0019,-0.100158 0,-0.144177 -5.29e-4,-0.01005 0.0021,-0.01672 0.0021,-0.02635 z m 19.572968,0.270785 c -7.94e-4,-0.0032 -0.0046,0.0029 -0.0098,0.01497 l 0.0098,0.0011 c 1.69e-4,-0.0026 0.0011,-0.01225 0,-0.01603 z m -0.748276,0.383439 c -0.007,-0.0042 -0.0021,0.02 0.0052,0.02376 0.01312,0.0069 0.02838,0.01452 0.04341,0.01913 -0.01624,-0.01431 -0.02936,-0.03127 -0.04857,-0.04289 z m 0.211873,0.544669 c 0.0048,0.0044 0.0093,0.0089 0.01394,0.01344 -5.29e-4,-0.0019 -0.0016,-0.0037 -0.0021,-0.0057 -0.0036,-0.0026 -0.0074,-0.0078 -0.01035,-0.0078 -5.29e-4,1.6e-5 -0.0011,-8e-6 -0.0016,0 z"
         style="fill:#ff0000;fill-opacity:1;fill-rule:nonzero;stroke:none;stroke-width:0.264583"
         id="path2787" />
    </clipPath>
    <clipPath
       id="clipPath2795"
       clipPathUnits="userSpaceOnUse">
      <path
         d="m 89.853431,58.563867 v 1.956986 c 0.0034,-0.0029 0.0057,-0.0071 0.0093,-0.0098 0.0097,-0.03894 0.06365,-0.0623 0.142626,-0.07958 0.0013,-0.04848 0.0019,-0.100158 0,-0.144177 -0.01037,-0.233629 0.09369,-0.349715 0.207225,-0.349332 0.112765,2.65e-4 0.234812,0.116234 0.264583,0.3452 0.06887,0.01058 0.135427,0.02622 0.19327,0.06304 0.0488,0.03106 0.0028,0.115547 0.0083,0.173117 0.0016,0.01699 0.01236,0.03254 0.01291,0.04961 0.0013,0.03787 -0.0047,0.07587 -0.0072,0.113686 -0.0093,0.140803 -0.06078,0.139544 -0.12454,0.09095 -0.0047,0.01151 -0.0039,0.0108 -0.0083,0.0217 0.01714,0.0141 0.02739,0.0505 0.04289,0.06977 0.10927,0.09487 0.296884,0.177712 0.32711,0.337447 0.01193,0.06301 -0.01008,0.128296 -0.01498,0.192235 -0.003,0.03971 -0.01019,0.06312 -0.0181,0.08165 h 0.20774 v -2.912483 z m 0.768946,1.967839 c -7.94e-4,-0.0032 -0.0046,0.0029 -0.0098,0.01497 l 0.0098,0.0011 c 1.69e-4,-0.0026 0.0011,-0.01225 0,-0.01603 z m -0.748276,0.383439 c -0.007,-0.0042 -0.0021,0.02 0.0052,0.02376 0.01312,0.0069 0.02838,0.0145 0.04341,0.01913 -0.01624,-0.01431 -0.02936,-0.03127 -0.04857,-0.04289 z m -0.02066,0.04341 v 0.270269 c 0.01162,0.01199 0.02302,0.02416 0.03462,0.03617 -0.0047,-0.09298 -0.02228,-0.0072 0.05994,-0.23926 -0.0065,-0.0064 -0.01304,-0.01302 -0.02016,-0.0181 -0.01789,-0.0127 -0.04556,-0.0109 -0.05943,-0.02791 -0.0055,-0.0067 -0.0097,-0.01434 -0.01498,-0.02119 z m 0.886767,0.440282 c -0.0019,0.0283 -0.01363,0.05396 -0.03049,0.07751 h 0.09405 c -0.01984,-0.0199 -0.04123,-0.0458 -0.06356,-0.07751 z m -0.654225,0.06098 c 0.0047,0.0043 0.0094,0.0085 0.01394,0.01291 -5.29e-4,-0.0016 -0.0016,-0.0029 -0.0021,-0.0047 -0.0037,-0.003 -0.0073,-0.0083 -0.01035,-0.0083 -5.3e-4,1.3e-5 -0.0011,-8e-6 -0.0016,0 z"
         style="fill:#ff0000;fill-opacity:1;fill-rule:nonzero;stroke:none;stroke-width:0.264583"
         id="path2797" />
    </clipPath>
    <clipPath
       id="clipPath2805"
       clipPathUnits="userSpaceOnUse">
      <path
         d="M 62.915541,51.951869 V 95.238631 H 100.50601 V 51.951869 Z m 27.297041,7.986075 c 0.112765,2.64e-4 0.234812,0.116234 0.264583,0.345199 0.06887,0.01058 0.135427,0.02622 0.193271,0.06304 0.0488,0.03106 0.0028,0.115546 0.0083,0.173117 0.0016,0.01699 0.01236,0.03254 0.01291,0.04961 0.0013,0.03787 -0.0047,0.07587 -0.0072,0.113686 -0.0093,0.140804 -0.06078,0.139544 -0.124539,0.09095 -0.0047,0.01151 -0.0039,0.0108 -0.0083,0.0217 0.01714,0.0141 0.02739,0.05049 0.04289,0.06976 0.109271,0.09487 0.296884,0.177713 0.32711,0.337447 0.01193,0.06301 -0.01011,0.128296 -0.01498,0.192236 -0.01405,0.183866 -0.08535,0.119282 -0.166397,0.0041 -0.0033,0.04838 -0.02813,0.09192 -0.07545,0.123508 0.0093,0.09353 0.01479,0.176003 0.0052,0.183967 -0.111228,0.09194 -0.287203,0.02484 -0.43098,0.03721 -0.0034,-0.0063 -0.0073,-0.01286 -0.01085,-0.01913 -5.29e-4,0.03134 -0.0045,0.06155 -0.02223,0.08785 -0.07308,0.108677 -0.161001,0.12564 -0.24598,0.103354 0.02896,0.130278 0.0526,0.261411 0.05943,0.395324 -0.152556,0.02598 -0.302607,0.08093 -0.457338,0.07803 -0.03196,-5.29e-4 -0.03681,-0.146881 -0.04341,-0.162779 -0.01429,-0.03436 -0.03277,-0.06553 -0.05116,-0.09664 -0.108842,0.08417 -0.209407,0.184076 -0.336931,0.233061 -0.0049,0.0019 -0.0089,-0.0011 -0.01344,-0.0016 -0.02175,0.01638 -0.06436,-0.03503 -0.09405,-0.05219 -0.137502,-0.07945 -0.229,-0.179316 -0.31626,-0.311092 -0.02029,-0.03064 -0.03717,-0.06343 -0.05581,-0.09509 -0.0086,-0.0177 -0.01722,-0.03554 -0.02582,-0.05323 -0.08089,-0.165783 -0.05647,-0.296966 0.01138,-0.371555 -1.56e-4,-0.0033 -7.94e-4,-0.006 -0.0011,-0.0093 -0.0095,-0.233672 0.09308,-0.349825 0.205671,-0.349335 0.08351,2.65e-4 0.17204,0.0654 0.225311,0.19327 0.06754,-0.01971 0.15617,-0.01101 0.263033,0.05064 -0.0061,-0.0241 -0.0122,-0.04818 -0.0181,-0.07235 -0.0034,-0.01445 -0.02246,-0.03975 -0.0083,-0.04392 0.155613,-0.04558 0.318371,-0.06235 0.477489,-0.09354 0.03558,0.03749 0.07158,0.0744 0.107489,0.11162 -0.0047,-0.09298 -0.02228,-0.0072 0.05994,-0.23926 -0.0065,-0.0064 -0.01304,-0.01302 -0.02016,-0.0181 -0.01789,-0.0127 -0.04556,-0.0109 -0.05943,-0.02791 -0.06834,-0.08374 -0.121698,-0.178782 -0.18242,-0.2682 0.06008,-0.06531 0.107088,-0.147032 0.176734,-0.200507 0.0097,-0.03894 0.06365,-0.0623 0.142626,-0.07958 0.0013,-0.04848 0.0019,-0.100158 0,-0.144177 -0.01037,-0.23363 0.09369,-0.349716 0.207225,-0.349332 z m 0.409795,0.593762 c -7.94e-4,-0.0032 -0.0046,0.0029 -0.0098,0.01497 l 0.0098,0.0011 c 1.69e-4,-0.0026 0.0011,-0.01225 0,-0.01603 z m -0.748276,0.383439 c -0.007,-0.0042 -0.0021,0.02 0.0052,0.02376 0.01312,0.0069 0.02838,0.0145 0.04341,0.01913 -0.01624,-0.01431 -0.02936,-0.03127 -0.04857,-0.04289 z m 0.211873,0.544669 c 0.0048,0.0044 0.0093,0.0089 0.01394,0.01344 -5.29e-4,-0.0019 -0.0016,-0.0037 -0.0021,-0.0057 -0.0036,-0.0026 -0.0074,-0.0078 -0.01035,-0.0078 -5.29e-4,1.3e-5 -0.0011,-8e-6 -0.0016,0 z"
         style="fill:#ff0000;fill-opacity:1;fill-rule:nonzero;stroke:none;stroke-width:0.264583"
         id="path2807" />
    </clipPath>
    <clipPath
       id="clipPath2815"
       clipPathUnits="userSpaceOnUse">
      <path
         d="m 87.657699,58.809848 v 23.7231 h 9.381339 v -23.7231 z m 2.554883,1.128096 c 0.112765,2.64e-4 0.234812,0.116234 0.264583,0.345199 0.06887,0.01058 0.135427,0.02622 0.193271,0.06304 0.0488,0.03106 0.0028,0.115546 0.0083,0.173117 0.0016,0.01699 0.01236,0.03254 0.01291,0.04961 0.0013,0.03787 -0.0047,0.07587 -0.0072,0.113686 -0.0093,0.140804 -0.06078,0.139544 -0.124539,0.09095 -0.0047,0.01151 -0.0039,0.0108 -0.0083,0.0217 0.01714,0.0141 0.02739,0.05049 0.04289,0.06976 0.109271,0.09487 0.296884,0.177713 0.32711,0.337447 0.01193,0.06301 -0.01011,0.128296 -0.01498,0.192236 -0.01405,0.183866 -0.08535,0.119282 -0.166397,0.0041 -0.0033,0.04838 -0.02813,0.09192 -0.07545,0.123508 0.0093,0.09353 0.01479,0.176003 0.0052,0.183967 -0.111228,0.09194 -0.287203,0.02484 -0.43098,0.03721 -0.0034,-0.0063 -0.0073,-0.01286 -0.01085,-0.01913 -5.29e-4,0.03134 -0.0045,0.06155 -0.02223,0.08785 -0.07308,0.108677 -0.161001,0.12564 -0.24598,0.103354 0.02896,0.130278 0.0526,0.261411 0.05943,0.395324 -0.152556,0.02598 -0.302607,0.08093 -0.457338,0.07803 -0.03196,-5.29e-4 -0.03681,-0.146881 -0.04341,-0.162779 -0.01429,-0.03436 -0.03277,-0.06553 -0.05116,-0.09664 -0.108842,0.08417 -0.209407,0.184076 -0.336931,0.233061 -0.0049,0.0019 -0.0089,-0.0011 -0.01344,-0.0016 -0.02175,0.01638 -0.06436,-0.03503 -0.09405,-0.05219 -0.137502,-0.07945 -0.229,-0.179316 -0.31626,-0.311092 -0.02029,-0.03064 -0.03717,-0.06343 -0.05581,-0.09509 -0.0086,-0.0177 -0.01722,-0.03554 -0.02582,-0.05323 -0.08089,-0.165783 -0.05647,-0.296966 0.01138,-0.371555 -1.56e-4,-0.0033 -7.94e-4,-0.006 -0.0011,-0.0093 -0.0095,-0.233672 0.09308,-0.349825 0.205671,-0.349335 0.08351,2.65e-4 0.17204,0.0654 0.225311,0.19327 0.06754,-0.01971 0.15617,-0.01101 0.263033,0.05064 -0.0061,-0.0241 -0.0122,-0.04818 -0.0181,-0.07235 -0.0034,-0.01445 -0.02246,-0.03975 -0.0083,-0.04392 0.155613,-0.04558 0.318371,-0.06235 0.477489,-0.09354 0.03558,0.03749 0.07158,0.0744 0.107489,0.11162 -0.0047,-0.09298 -0.02228,-0.0072 0.05994,-0.23926 -0.0065,-0.0064 -0.01304,-0.01302 -0.02016,-0.0181 -0.01789,-0.0127 -0.04556,-0.0109 -0.05943,-0.02791 -0.06834,-0.08374 -0.121698,-0.178782 -0.18242,-0.2682 0.06008,-0.06531 0.107088,-0.147032 0.176734,-0.200507 0.0097,-0.03894 0.06365,-0.0623 0.142626,-0.07958 0.0013,-0.04848 0.0019,-0.100158 0,-0.144177 -0.01037,-0.23363 0.09369,-0.349716 0.207225,-0.349332 z m 0.409795,0.593762 c -7.94e-4,-0.0032 -0.0046,0.0029 -0.0098,0.01497 l 0.0098,0.0011 c 1.69e-4,-0.0026 0.0011,-0.01225 0,-0.01603 z m -0.748276,0.383439 c -0.007,-0.0042 -0.0021,0.02 0.0052,0.02376 0.01312,0.0069 0.02838,0.0145 0.04341,0.01913 -0.01624,-0.01431 -0.02936,-0.03127 -0.04857,-0.04289 z m 0.211873,0.544669 c 0.0048,0.0044 0.0093,0.0089 0.01394,0.01344 -5.29e-4,-0.0019 -0.0016,-0.0037 -0.0021,-0.0057 -0.0036,-0.0026 -0.0074,-0.0078 -0.01035,-0.0078 -5.29e-4,1.3e-5 -0.0011,-8e-6 -0.0016,0 z"
         style="fill:#ff0000;fill-opacity:1;fill-rule:nonzero;stroke:none;stroke-width:0.264583"
         id="path2817" />
    </clipPath>
    <clipPath
       id="clipPath2825"
       clipPathUnits="userSpaceOnUse">
      <path
         d="M 238.82812,229.30078 V 358.92773 H 378.62109 V 229.30078 h -35.87304 c -10e-4,0.0169 -0.003,0.0339 -0.004,0.0508 -0.0352,0.53217 -0.22972,0.52741 -0.4707,0.34375 -0.0179,0.0435 -0.0147,0.0408 -0.0312,0.082 0.0648,0.0532 0.10355,0.19083 0.16211,0.26368 0.41299,0.35857 1.12209,0.67167 1.23632,1.27539 0.0451,0.23816 -0.0381,0.4849 -0.0566,0.72656 -0.0531,0.69493 -0.32259,0.45072 -0.6289,0.0156 -0.0125,0.18286 -0.10631,0.34743 -0.28516,0.4668 0.0353,0.35351 0.056,0.6652 0.0195,0.69531 -0.42039,0.34749 -1.08549,0.0939 -1.6289,0.14063 -0.0127,-0.0238 -0.0276,-0.0486 -0.041,-0.0723 -0.002,0.11844 -0.0171,0.23263 -0.084,0.33203 -0.27619,0.41075 -0.60851,0.47486 -0.92969,0.39063 0.10945,0.49239 0.19882,0.98801 0.22461,1.49414 -0.57659,0.0982 -1.14372,0.30588 -1.72852,0.29492 -0.12079,-0.002 -0.13911,-0.55514 -0.16406,-0.61523 -0.054,-0.12988 -0.12384,-0.2477 -0.19336,-0.36524 -0.41137,0.31813 -0.79146,0.69572 -1.27344,0.88086 -0.0187,0.007 -0.0338,-0.004 -0.0508,-0.006 -0.0822,0.0619 -0.24325,-0.1324 -0.35547,-0.19726 -0.51969,-0.30028 -0.86551,-0.67773 -1.19531,-1.17578 -0.0767,-0.11581 -0.14049,-0.23972 -0.21094,-0.35938 -0.0326,-0.0669 -0.0651,-0.13431 -0.0976,-0.20117 -0.30571,-0.62658 -0.21343,-1.12239 0.043,-1.4043 -5.9e-4,-0.0123 -0.003,-0.0228 -0.004,-0.0351 -0.036,-0.88316 0.35181,-1.32217 0.77734,-1.32032 0.31564,0.001 0.65023,0.24717 0.85157,0.73047 0.25528,-0.0745 0.59024,-0.0416 0.99414,0.19141 -0.0229,-0.0911 -0.0463,-0.1821 -0.0684,-0.27344 -0.0129,-0.0546 -0.0852,-0.15018 -0.0312,-0.16601 0.58814,-0.17228 1.20332,-0.23564 1.80468,-0.35352 0.13448,0.14169 0.27054,0.28118 0.40626,0.42187 -0.0178,-0.35141 -0.0842,-0.0272 0.22656,-0.90429 -0.0247,-0.0242 -0.0493,-0.0492 -0.0762,-0.0684 -0.0676,-0.048 -0.17219,-0.0412 -0.22461,-0.10547 -0.2583,-0.31649 -0.45996,-0.67571 -0.68946,-1.01367 0.0458,-0.0498 0.086,-0.10672 0.12891,-0.16016 z m 100.85352,0.92969 c -0.0263,-0.016 -0.008,0.0755 0.0195,0.0898 0.0496,0.026 0.10727,0.0549 0.16406,0.0723 -0.0614,-0.0541 -0.11095,-0.11817 -0.18359,-0.16211 z m 0.80078,2.05859 c 0.018,0.0165 0.0353,0.0337 0.0527,0.0508 -0.002,-0.007 -0.006,-0.0141 -0.008,-0.0215 -0.0136,-0.01 -0.0278,-0.0296 -0.0391,-0.0293 -0.002,5e-5 -0.004,-3e-5 -0.006,0 z"
         style="fill:#ff0000;fill-opacity:1;fill-rule:nonzero;stroke:none"
         id="path2827" />
    </clipPath>
  </defs>
  <sodipodi:namedview
     fit-margin-bottom="0"
     fit-margin-right="0"
     fit-margin-left="0"
     fit-margin-top="0"
     inkscape:window-maximized="0"
     inkscape:window-y="109"
     inkscape:window-x="597"
     inkscape:window-height="1198"
     inkscape:window-width="1375"
     showgrid="false"
     inkscape:document-rotation="0"
     inkscape:current-layer="layer1"
     inkscape:document-units="mm"
     inkscape:cy="27.038612"
     inkscape:cx="41.700253"
     inkscape:zoom="1.4"
     inkscape:pageshadow="2"
     inkscape:pageopacity="0.0"
     borderopacity="1.0"
     bordercolor="#666666"
     pagecolor="#ffffff"
     id="base" />
  <metadata
     id="metadata1446">
    <rdf:RDF>
      <cc:Work
         rdf:about="">
        <dc:format>image/svg+xml</dc:format>
        <dc:type
           rdf:resource="http://purl.org/dc/dcmitype/StillImage" />
        <dc:title></dc:title>
      </cc:Work>
    </rdf:RDF>
  </metadata>
  <g
     transform="translate(-66.990035,-24.084994)"
     id="layer1"
     inkscape:groupmode="layer"
     inkscape:label="Layer 1">
    <g
       id="g3482">
      <path
         style="opacity:1;fill:#002255;fill-opacity:1;stroke:#2c5aa0;stroke-width:0.6;stroke-linecap:square;stroke-linejoin:miter;stroke-miterlimit:4;stroke-dasharray:none;stroke-opacity:1;paint-order:stroke fill markers"
         d="m 80.576622,35.024161 c -0.30078,-0.236598 -0.3671,-0.394755 -0.3671,-0.875413 0,-2.690768 4.47839,-7.679312 6.89398,-7.679312 0.99912,0 1.29506,0.608166 0.93349,1.918327 -0.77751,2.817382 -4.29721,6.478061 -6.57948,6.843009 -0.40621,0.06495 -0.59064,0.0217 -0.88089,-0.206611 z"
         id="path3298" />
      <path
         style="opacity:1;fill:#002255;fill-opacity:1;stroke:#2c5aa0;stroke-width:0.6;stroke-linecap:square;stroke-linejoin:miter;stroke-miterlimit:4;stroke-dasharray:none;stroke-opacity:1;paint-order:stroke fill markers"
         d="m 85.731722,34.186843 c -0.49469,-0.549503 -0.48209,-0.605166 0.36275,-1.602648 1.08913,-1.285912 1.94553,-2.754646 2.29927,-3.943286 l 0.28836,-0.968944 0.37965,0.609962 0.37965,0.609965 -0.21154,0.825715 c -0.23411,0.913852 -0.75394,1.91752 -1.57069,3.032662 -0.57665,0.787323 -1.43707,1.737254 -1.57355,1.737254 -0.0458,0 -0.20503,-0.135305 -0.3539,-0.30068 z"
         id="path3300" />
      <path
         style="opacity:1;fill:#002255;fill-opacity:1;stroke:#2c5aa0;stroke-width:0.6;stroke-linecap:round;stroke-linejoin:miter;stroke-miterlimit:4;stroke-dasharray:none;stroke-opacity:1"
         d="m 81.625432,36.238083 -0.37134,-0.387596 0.44656,-0.09659 c 0.62495,-0.135176 1.5249,-0.608338 2.38207,-1.252406 0.4015,-0.301678 0.76958,-0.548507 0.81796,-0.548507 0.0873,0 0.78786,0.866015 0.78786,0.973981 0,0.115377 -1.6084,1.179507 -2.16368,1.431512 -0.85295,0.387099 -1.44945,0.34929 -1.89943,-0.120394 z"
         id="path3302" />
      <path
         style="opacity:1;fill:#002255;fill-opacity:1;stroke:#2c5aa0;stroke-width:0.6;stroke-linecap:square;stroke-linejoin:miter;stroke-miterlimit:4;stroke-dasharray:none;stroke-opacity:1;paint-order:stroke fill markers"
         d="m 76.467742,31.474369 c -2.36427,-0.431311 -4.16188,-1.410462 -4.4718,-2.435773 -0.13969,-0.462116 0.62172,-1.151538 1.60796,-1.455933 1.18232,-0.364914 4.40162,-0.3268 5.85864,0.06936 1.06739,0.290221 2.21629,0.770117 2.65714,1.109887 0.22453,0.173051 0.20111,0.234482 -0.36926,0.969013 -0.33494,0.431337 -0.73682,1.011711 -0.89307,1.289716 -0.15625,0.278006 -0.41103,0.539539 -0.56619,0.581184 -0.50657,0.135975 -2.79816,0.05958 -3.82342,-0.127452 z"
         id="path3356" />
      <path
         style="opacity:1;fill:#002255;fill-opacity:1;stroke:#2c5aa0;stroke-width:0.610834;stroke-linecap:square;stroke-linejoin:miter;stroke-miterlimit:4;stroke-dasharray:none;stroke-opacity:1;paint-order:stroke fill markers"
         d="m 73.963002,32.818658 c -0.99388,-0.496824 -1.60773,-0.955641 -2.02517,-1.513686 -0.35064,-0.468736 -0.37104,-0.565581 -0.23665,-1.123413 l 0.14705,-0.61046 0.35756,0.427418 c 0.4286,0.512337 1.66883,1.316965 2.52663,1.639209 0.60377,0.226818 0.61706,0.244465 0.49219,0.653917 -0.31388,1.029197 -0.2829,1.01626 -1.26164,0.527012 z"
         id="path3358" />
      <path
         style="opacity:1;fill:#002255;fill-opacity:1;stroke:#2c5aa0;stroke-width:0.6;stroke-linecap:square;stroke-linejoin:miter;stroke-miterlimit:4;stroke-dasharray:none;stroke-opacity:1;paint-order:stroke fill markers"
         d="m 76.467742,33.331416 c -0.94904,-0.155142 -0.91047,-0.112059 -0.76392,-0.853216 0.10758,-0.544123 0.17616,-0.659738 0.34869,-0.587917 0.11813,0.04917 1.10178,0.120613 2.18589,0.158763 1.08412,0.03815 1.97021,0.106297 1.9691,0.151435 -0.001,0.04514 -0.0856,0.322609 -0.18779,0.616606 l -0.18578,0.53454 -1.51605,0.0172 c -0.83383,0.0095 -1.66639,-0.0074 -1.85014,-0.03741 z"
         id="path3360" />
      <path
         style="opacity:1;fill:#002255;fill-opacity:1;stroke:#2c5aa0;stroke-width:0.6;stroke-linecap:square;stroke-linejoin:miter;stroke-miterlimit:4;stroke-dasharray:none;stroke-opacity:1;paint-order:stroke fill markers"
         d="m 88.229892,32.746898 c 1.15865,-1.706192 1.79655,-3.537773 1.47663,-4.239805 -0.15745,-0.345511 -0.13698,-0.39361 0.34617,-0.813562 1.21414,-1.055306 3.27614,-2.025904 4.30397,-2.025904 1.60071,0 1.47729,1.628442 -0.29258,3.860276 -1.52855,1.927535 -4.63935,4.009345 -6.0085,4.021003 l -0.37248,0.0032 z"
         id="path3362" />
      <path
         style="opacity:1;fill:#002255;fill-opacity:1;stroke:#2c5aa0;stroke-width:0.6;stroke-linecap:square;stroke-linejoin:miter;stroke-miterlimit:4;stroke-dasharray:none;stroke-opacity:1;paint-order:stroke fill markers"
         d="m 92.022172,33.020318 -0.36454,-0.550854 0.52337,-0.415541 c 1.55755,-1.236666 3.07911,-3.135226 3.52313,-4.396052 l 0.23397,-0.664385 0.24579,0.640008 c 0.13519,0.352007 0.23507,0.776116 0.22196,0.942467 -0.0675,0.856986 -1.56697,2.987985 -2.85791,4.061627 -1.24289,1.033685 -1.11605,1.001866 -1.52577,0.38273 z"
         id="path3366" />
      <path
         style="opacity:1;fill:#002255;fill-opacity:1;stroke:#2c5aa0;stroke-width:0.6;stroke-linecap:square;stroke-linejoin:miter;stroke-miterlimit:4;stroke-dasharray:none;stroke-opacity:1;paint-order:stroke fill markers"
         d="m 87.733942,34.636632 -0.42685,-0.514247 0.80808,-0.07327 c 0.5949,-0.05395 1.11958,-0.2311 1.98892,-0.67156 l 1.18085,-0.598286 0.36207,0.522462 c 0.19914,0.287353 0.3381,0.542642 0.30881,0.567303 -0.27362,0.230362 -1.43024,0.803487 -2.05597,1.018773 -1.20746,0.415428 -1.65576,0.36344 -2.16591,-0.251171 z"
         id="path3368" />
      <path
         style="opacity:1;fill:#002255;fill-opacity:1;stroke:#2c5aa0;stroke-width:0.868882;stroke-linecap:square;stroke-linejoin:miter;stroke-miterlimit:4;stroke-dasharray:none;stroke-opacity:1;paint-order:stroke fill markers"
         d="m 81.311902,28.405914 c -1.18706,-0.348674 -1.23521,-0.387039 -1.23521,-0.98404 0,-0.601855 0.63001,-1.619798 1.00251,-1.619798 0.10091,0 0.18328,0.154244 0.18328,0.342762 0,0.188519 0.31281,0.840809 0.69511,1.449538 0.3823,0.608728 0.67136,1.121982 0.64231,1.140569 -0.0289,0.01858 -0.60864,-0.129476 -1.288,-0.329031 z"
         id="path3422" />
      <path
         style="opacity:1;fill:#002255;fill-opacity:1;stroke:#2c5aa0;stroke-width:0.6;stroke-linecap:square;stroke-linejoin:miter;stroke-miterlimit:4;stroke-dasharray:none;stroke-opacity:1;paint-order:stroke fill markers"
         d="m 82.330432,27.637723 c -1.77577,-2.235899 -1.26151,-3.717968 1.08179,-3.117644 0.81282,0.208237 2.95128,1.224624 2.93778,1.396301 -0.004,0.04694 -0.35394,0.249624 -0.77834,0.450422 -0.4244,0.2008 -1.20211,0.72653 -1.72824,1.168289 l -0.9566,0.803198 z"
         id="path3424" />
      <g
         id="g3447"
         style="stroke:#2c5aa0;stroke-width:0.5;stroke-miterlimit:4;stroke-dasharray:none;stroke-opacity:1"
         transform="translate(-35.853348,-23.020161)">
        <path
           id="path2311"
           d="m 111.33796,60.346651 c -0.37848,-0.03473 -0.38903,-0.04565 -0.55489,-0.57408 -0.24948,-0.794877 -0.70422,-1.651579 -1.95442,-3.681984 -0.61648,-1.001212 -1.12088,-1.895351 -1.12088,-1.986973 0,-0.364702 0.62579,-0.907394 0.92385,-0.801166 0.0664,0.02365 0.20284,0.204128 0.30331,0.401063 0.12288,0.240858 0.26898,0.37891 0.44632,0.421743 0.9892,0.238916 0.94601,0.209606 1.01819,0.690946 0.0425,0.283409 0.3735,1.035818 0.9038,2.054461 0.85166,1.635934 1.24258,2.55471 1.3573,3.190054 l 0.064,0.354352 -0.50038,-0.01651 c -0.27521,-0.0091 -0.67399,-0.03244 -0.88619,-0.05191 z"
           style="opacity:1;fill:#002255;fill-opacity:1;stroke:#2c5aa0;stroke-width:0.5;stroke-linecap:round;stroke-linejoin:round;stroke-miterlimit:4;stroke-dasharray:none;stroke-opacity:1" />
        <path
           id="path2313"
           d="m 113.01066,59.953771 c -0.16277,-0.758989 -0.54683,-1.682602 -1.29128,-3.105343 -0.38738,-0.740318 -0.70431,-1.35857 -0.70431,-1.373897 0,-0.01532 0.37207,0.01257 0.82682,0.062 0.58923,0.06404 1.11193,0.05566 1.81901,-0.02917 0.5457,-0.06547 1.07263,-0.125487 1.17094,-0.133379 0.14956,-0.01201 0.21971,0.140004 0.42951,0.930595 0.13792,0.519715 0.47774,1.497729 0.75517,2.173361 0.63667,1.550533 0.69972,1.764168 0.54886,1.859981 -0.0643,0.04084 -0.86815,0.07491 -1.78635,0.0757 l -1.66944,0.0013 z"
           style="opacity:1;fill:#002255;fill-opacity:1;stroke:#2c5aa0;stroke-width:0.5;stroke-linecap:round;stroke-linejoin:round;stroke-miterlimit:4;stroke-dasharray:none;stroke-opacity:1" />
        <path
           id="path2315"
           d="m 116.96819,60.07386 c 0,-0.135694 -0.15387,-0.62675 -0.34192,-1.091237 -0.18806,-0.464489 -0.32626,-0.859975 -0.30711,-0.878858 0.0192,-0.01889 0.26869,0.0093 0.55454,0.06273 0.49095,0.0917 2.21728,0.05549 3.40178,-0.07134 l 0.51972,-0.05565 0.31603,0.958368 c 0.17382,0.527103 0.29963,0.974765 0.2796,0.994802 -0.056,0.05596 -3.26494,0.32675 -3.8793,0.327358 -0.52286,5.29e-4 -0.54334,-0.0088 -0.54334,-0.246176 z"
           style="opacity:1;fill:#002255;fill-opacity:1;stroke:#2c5aa0;stroke-width:0.5;stroke-linecap:round;stroke-linejoin:round;stroke-miterlimit:4;stroke-dasharray:none;stroke-opacity:1" />
        <path
           id="path2317"
           d="m 121.52768,59.122331 c -0.45266,-1.230387 -0.46986,-1.388068 -0.18274,-1.675196 l 0.24013,-0.240131 0.45551,0.20329 c 0.96306,0.429811 2.58089,0.306517 3.4557,-0.263355 0.19489,-0.126958 0.35435,-0.204939 0.35435,-0.173289 0,0.03165 -0.0856,0.340537 -0.1902,0.686422 -0.10461,0.345884 -0.22167,0.883639 -0.26015,1.195009 l -0.07,0.566129 -1.22813,0.206822 c -0.67547,0.113752 -1.46208,0.234016 -1.74803,0.26725 l -0.51989,0.06043 z"
           style="opacity:1;fill:#002255;fill-opacity:1;stroke:#2c5aa0;stroke-width:0.5;stroke-linecap:round;stroke-linejoin:round;stroke-miterlimit:4;stroke-dasharray:none;stroke-opacity:1" />
        <path
           id="path2319"
           d="m 125.76907,58.785045 c 0.0433,-0.272851 0.24643,-1.012436 0.45131,-1.64352 0.20487,-0.631084 0.44443,-1.509614 0.53234,-1.952291 l 0.15985,-0.804866 0.67383,-0.06327 c 0.83568,-0.07847 2.34793,-0.375042 2.89306,-0.567375 0.22486,-0.07934 0.4218,-0.131284 0.43764,-0.115438 0.0159,0.01585 -0.0751,0.941157 -0.20212,2.056254 -0.12701,1.115095 -0.23165,2.0949 -0.23254,2.177341 -0.002,0.168217 -1.4519,0.654286 -3.37436,1.13107 -1.50301,0.372756 -1.43462,0.383887 -1.33901,-0.217905 z"
           style="opacity:1;fill:#002255;fill-opacity:1;stroke:#2c5aa0;stroke-width:0.5;stroke-linecap:round;stroke-linejoin:round;stroke-miterlimit:4;stroke-dasharray:none;stroke-opacity:1" />
        <path
           id="path2321"
           d="m 130.85882,57.783695 c 0,-0.05514 0.10925,-1.048332 0.24278,-2.207096 0.16311,-1.415475 0.22422,-2.327446 0.18621,-2.779095 l -0.0566,-0.672251 0.45162,-0.18973 c 0.24839,-0.104352 0.57284,-0.218316 0.721,-0.253254 0.27909,-0.06582 0.9118,0.09045 0.9118,0.225195 0,0.04218 -0.20844,0.544504 -0.4632,1.116269 -0.63713,1.429909 -0.94326,2.353778 -1.0715,3.233624 -0.0998,0.684712 -0.0942,0.763394 0.0666,0.94112 0.20503,0.226555 0.21856,0.209031 -0.3273,0.424018 -0.23387,0.09211 -0.47837,0.188622 -0.54334,0.214464 -0.065,0.02585 -0.11811,0.0019 -0.11811,-0.05326 z"
           style="opacity:1;fill:#002255;fill-opacity:1;stroke:#2c5aa0;stroke-width:0.5;stroke-linecap:round;stroke-linejoin:round;stroke-miterlimit:4;stroke-dasharray:none;stroke-opacity:1" />
        <path
           clip-path="url(#clipPath2825)"
           transform="matrix(0.26458333,0,0,0.26458333,39.653444,-0.33398321)"
           id="path2323"
           d="m 302.21322,358.67892 c -24.32909,-2.03652 -43.11132,-13.42185 -56.25314,-34.09927 -3.3072,-5.20356 -5.81326,-10.41578 -6.42826,-13.36979 -1.97303,-9.47695 1.72653,-25.09956 9.72062,-41.04851 4.04716,-8.07446 11.42565,-19.89392 17.08065,-27.36116 l 2.69349,-3.55666 3.11118,0.22917 c 1.71115,0.12605 3.16216,0.27124 3.22447,0.32266 0.24477,0.20194 -1.73134,3.67568 -3.30964,5.81793 -0.91601,1.24332 -2.54381,3.16741 -3.61733,4.27576 -1.73238,1.78859 -2.23072,2.92795 -1.28064,2.92795 0.17654,0 1.55028,-1.28671 3.05277,-2.85935 2.77166,-2.90105 4.54204,-5.36872 5.99021,-8.34949 l 0.80081,-1.6483 4.30384,0.003 c 2.3671,0.002 5.15117,0.10488 6.18681,0.22927 2.24059,0.26911 2.24392,0.13772 -0.12745,5.02526 -1.5754,3.24699 -4.53433,7.31821 -7.06669,9.72314 -0.71279,0.67693 -1.29599,1.43083 -1.29599,1.67535 0,2.861 6.77469,-4.77944 9.80972,-11.06333 0.86902,-1.79925 1.6826,-3.69759 1.80795,-4.21852 l 0.22792,-0.94716 4.88078,-0.21671 c 2.68443,-0.11919 6.97006,-0.36035 9.52363,-0.53591 2.55358,-0.17556 4.70472,-0.25961 4.78033,-0.18677 0.0756,0.0729 -0.0508,1.60033 -0.28087,3.39442 -0.57627,4.49351 -2.19119,9.28867 -4.3226,12.835 -1.33267,2.21736 -1.67779,3.0582 -1.34248,3.2708 0.76111,0.48257 1.06217,0.17668 2.78606,-2.8308 2.02635,-3.53513 3.47403,-7.78204 3.97257,-11.65395 0.20509,-1.59283 0.48045,-3.44767 0.61191,-4.12187 l 0.23902,-1.22583 4.4566,-0.64097 c 2.45114,-0.35254 4.88211,-0.73418 5.40216,-0.84809 l 0.94556,-0.20712 -0.82694,3.50249 c -1.78969,7.5802 -2.37737,11.4164 -2.57458,16.80605 -0.1973,5.39192 -0.19163,5.44643 0.56627,5.44643 0.73977,0 0.76557,-0.1432 0.76557,-4.25022 0,-2.63222 0.27439,-5.85528 0.72079,-8.46644 0.7265,-4.24954 2.67344,-12.93947 2.96417,-13.23021 0.0862,-0.0862 0.60282,-0.1897 1.14799,-0.22995 l 0.99122,-0.0732 0.97575,4.64286 c 1.19247,5.67404 1.58686,7.22793 4.31787,17.01227 1.94804,6.9792 2.22379,7.709 2.85087,7.54501 0.44127,-0.11539 0.62879,-0.39314 0.51464,-0.76227 -2.91934,-9.44052 -7.63779,-28.43814 -7.17751,-28.89842 0.27875,-0.27875 6.30481,-1.72675 6.40991,-1.54024 0.31346,0.55631 9.5815,28.8757 10.53128,32.17936 4.39673,15.29334 6.23894,28.38945 5.42368,38.55644 -0.29289,3.6526 -0.28405,4.85662 0.0371,5.05511 1.78322,1.10209 11.53477,1.60772 14.39937,0.74664 2.52899,-0.76021 2.52643,-0.75003 0.97266,-3.8616 -2.35481,-4.71575 -3.55915,-9.02254 -3.78501,-13.53545 -0.63368,-12.66112 -3.28768,-22.68357 -14.62143,-55.21571 l -2.68914,-7.71886 2.36755,-0.93934 c 1.30215,-0.51664 2.47401,-0.81993 2.60413,-0.674 0.13012,0.14594 4.29568,9.02427 9.2568,19.72963 4.96112,10.70536 10.10412,21.63393 11.42889,24.28571 3.90736,7.82139 6.50677,14.80926 7.90476,21.25 0.26122,1.20351 0.46622,4.41297 0.46765,7.32143 0.004,8.30187 -1.96013,16.1203 -5.69393,22.66461 -9.62528,16.8704 -31.18848,29.90061 -54.99865,33.23458 -3.70345,0.51857 -12.72962,0.91192 -15.53571,0.67702 z"
           style="opacity:1;fill:#002255;fill-opacity:1;stroke:#2c5aa0;stroke-width:1.88976;stroke-linecap:round;stroke-linejoin:round;stroke-miterlimit:4;stroke-dasharray:none;stroke-opacity:1" />
        <path
           id="path2325"
           d="m 111.72377,62.685215 c -0.9258,-0.06937 -1.15895,-0.154828 -1.45733,-0.534154 -0.29765,-0.378401 -0.24928,-0.665832 0.18517,-1.100283 l 0.38149,-0.381489 1.52514,0.06287 c 0.83883,0.03458 1.545,0.08274 1.56928,0.107018 0.1739,0.173903 -0.9786,1.95806 -1.24284,1.924 -0.0607,-0.0078 -0.49316,-0.04291 -0.96091,-0.07796 z"
           style="opacity:1;fill:#002255;fill-opacity:1;stroke:#2c5aa0;stroke-width:0.5;stroke-linecap:round;stroke-linejoin:round;stroke-miterlimit:4;stroke-dasharray:none;stroke-opacity:1" />
        <path
           id="path2327"
           d="m 113.97252,62.801841 -0.68057,-0.03252 0.37457,-0.492045 c 0.20602,-0.270624 0.44378,-0.709441 0.52837,-0.975149 l 0.15379,-0.483103 0.76641,-0.05967 c 0.42153,-0.03282 1.20601,-0.05992 1.74329,-0.06024 l 0.97687,-5.29e-4 -0.0661,0.401601 c -0.0842,0.511124 -0.27197,0.968602 -0.58192,1.41741 l -0.24471,0.354353 -1.1447,-0.01879 c -0.62959,-0.01032 -1.45096,-0.03341 -1.82527,-0.05129 z"
           style="opacity:1;fill:#002255;fill-opacity:1;stroke:#2c5aa0;stroke-width:0.5;stroke-linecap:round;stroke-linejoin:round;stroke-miterlimit:4;stroke-dasharray:none;stroke-opacity:1" />
        <path
           id="path2329"
           d="m 117.7284,62.338151 c 0.15616,-0.304107 0.33181,-0.812827 0.39033,-1.130493 l 0.1064,-0.577572 1.09371,-0.06539 c 0.60155,-0.03596 1.57923,-0.125613 2.17262,-0.199226 0.5934,-0.07361 1.11535,-0.111318 1.15989,-0.08379 0.15829,0.09782 0.0759,0.848992 -0.14423,1.314563 -0.12285,0.259858 -0.35383,0.594995 -0.5133,0.744747 -0.32294,0.303263 -0.65341,0.352475 -3.25196,0.484275 l -1.29739,0.0658 z"
           style="opacity:1;fill:#002255;fill-opacity:1;stroke:#2c5aa0;stroke-width:0.5;stroke-linecap:round;stroke-linejoin:round;stroke-miterlimit:4;stroke-dasharray:none;stroke-opacity:1" />
        <path
           id="path2331"
           d="m 122.74847,61.962419 c 0.26947,-0.475544 0.31459,-0.645504 0.31459,-1.185064 v -0.629896 l 0.51594,-0.06446 c 0.28377,-0.03546 1.21699,-0.207851 2.07381,-0.383103 0.85682,-0.17525 1.56576,-0.309272 1.57543,-0.297826 0.0696,0.08243 -0.30416,1.148289 -0.53745,1.532718 -0.56962,0.93866 -0.59897,0.957038 -1.94149,1.215999 -0.66758,0.12877 -1.46164,0.263977 -1.76459,0.300463 l -0.55083,0.06633 z"
           style="opacity:1;fill:#002255;fill-opacity:1;stroke:#2c5aa0;stroke-width:0.5;stroke-linecap:round;stroke-linejoin:round;stroke-miterlimit:4;stroke-dasharray:none;stroke-opacity:1" />
        <path
           id="path2829"
           d="m 126.7542,61.505766 c 0.26054,-0.374615 0.51177,-0.876006 0.62175,-1.240842 0.0875,-0.290153 0.16232,-0.430094 0.16232,-0.303425 0,0.03841 0.0971,0.374357 0.21571,0.746557 0.11864,0.3722 0.20429,0.688144 0.19034,0.702101 -0.0217,0.02175 -0.87575,0.264408 -1.26715,0.360047 -0.12791,0.03126 -0.12739,0.02948 0.077,-0.264438 z"
           style="opacity:1;fill:#002255;fill-opacity:1;stroke:#2c5aa0;stroke-width:0.5;stroke-linecap:round;stroke-linejoin:round;stroke-miterlimit:4;stroke-dasharray:none;stroke-opacity:1" />
        <path
           id="path2831"
           d="m 130.17075,58.982798 c -0.0706,-0.235292 -0.12838,-0.439412 -0.12838,-0.453599 0,-0.01418 0.0512,-0.03864 0.11373,-0.05434 0.0626,-0.01569 0.15084,-0.04279 0.19621,-0.0602 0.0756,-0.02903 0.0797,-0.0026 0.0494,0.318715 -0.0182,0.192704 -0.0487,0.423912 -0.0678,0.513797 -0.0333,0.156527 -0.0402,0.145364 -0.16316,-0.264377 z"
           style="opacity:1;fill:#002255;fill-opacity:1;stroke:#2c5aa0;stroke-width:0.5;stroke-linecap:round;stroke-linejoin:round;stroke-miterlimit:4;stroke-dasharray:none;stroke-opacity:1" />
        <path
           id="path2833"
           d="m 130.63226,60.418477 c -0.12925,-0.357468 -0.14649,-0.448998 -0.10907,-0.578776 0.0686,-0.237927 0.22783,-1.203388 0.2287,-1.386671 l 7.9e-4,-0.172481 0.76695,-0.288822 c 0.8796,-0.331245 0.81469,-0.339061 1.12382,0.135324 0.23136,0.355033 0.30822,0.665773 0.22959,0.928211 -0.0703,0.234616 -0.30704,0.521319 -0.59287,0.717976 -0.19373,0.133289 -1.47529,0.704297 -1.58072,0.704297 -0.0252,0 -0.0555,-0.02658 -0.0672,-0.05906 z"
           style="opacity:1;fill:#002255;fill-opacity:1;stroke:#2c5aa0;stroke-width:0.5;stroke-linecap:round;stroke-linejoin:round;stroke-miterlimit:4;stroke-dasharray:none;stroke-opacity:1" />
        <path
           id="path2835"
           d="m 128.6781,62.568217 c -0.19077,-0.565195 -0.36453,-1.080778 -0.38613,-1.145741 -0.0654,-0.196644 -0.62488,-2.099432 -0.63042,-2.144028 -0.004,-0.03286 0.78565,-0.280088 1.97922,-0.619611 0.0852,-0.02424 0.11296,0.03503 0.28158,0.600247 0.1267,0.424695 0.22202,0.659497 0.2953,0.727408 0.12897,0.119536 0.15625,0.443796 0.0373,0.443796 -0.039,0 -0.0709,0.02059 -0.0709,0.04577 0,0.02516 0.0319,0.03352 0.0709,0.01857 0.0405,-0.01553 0.0709,-0.0011 0.0709,0.03387 0,0.03359 0.047,0.111082 0.10441,0.172212 0.081,0.08617 0.10677,0.176374 0.11491,0.401465 l 0.0105,0.29032 -0.74093,1.100137 c -0.40751,0.605076 -0.75192,1.100828 -0.76535,1.101672 -0.0135,7.94e-4 -0.18052,-0.460891 -0.37128,-1.026083 z"
           style="opacity:1;fill:#002255;fill-opacity:1;stroke:#2c5aa0;stroke-width:0.5;stroke-linecap:round;stroke-linejoin:round;stroke-miterlimit:4;stroke-dasharray:none;stroke-opacity:1" />
        <path
           id="path2837"
           d="m 129.56833,65.22113 -0.3971,-1.197509 0.74799,-1.112086 c 0.4114,-0.611646 0.76169,-1.120542 0.77842,-1.130882 0.0167,-0.01035 0.2274,0.543181 0.46816,1.230045 l 0.43774,1.248841 -0.81906,1.07955 -0.81905,1.079551 z"
           style="opacity:1;fill:#002255;fill-opacity:1;stroke:#2c5aa0;stroke-width:0.5;stroke-linecap:round;stroke-linejoin:round;stroke-miterlimit:4;stroke-dasharray:none;stroke-opacity:1" />
        <path
           id="path2839"
           d="m 130.89728,69.300915 c -0.0318,-0.11044 -0.22732,-0.727678 -0.43459,-1.371645 -0.30797,-0.956797 -0.36572,-1.182055 -0.31591,-1.232159 0.0335,-0.03372 0.40113,-0.511429 0.8169,-1.061569 l 0.75595,-1.000258 0.0646,0.153546 c 0.0356,0.08445 0.23817,0.652949 0.45028,1.26333 l 0.38565,1.109784 -0.80463,1.167985 c -0.44255,0.642392 -0.81721,1.168842 -0.83259,1.169887 -0.0154,0.0011 -0.0539,-0.08846 -0.0857,-0.198901 z"
           style="opacity:1;fill:#002255;fill-opacity:1;stroke:#2c5aa0;stroke-width:0.5;stroke-linecap:round;stroke-linejoin:round;stroke-miterlimit:4;stroke-dasharray:none;stroke-opacity:1" />
        <path
           id="path2841"
           d="m 131.81312,72.660885 c -0.0337,-0.200175 -0.44616,-1.77678 -0.63012,-2.408914 l -0.091,-0.312804 0.61508,-0.891995 c 1.09513,-1.588159 1.03787,-1.515205 1.0864,-1.384014 0.0581,0.157202 0.71971,2.230096 0.8091,2.535211 l 0.0726,0.247806 -0.82897,1.122357 c -0.45593,0.617297 -0.86707,1.162008 -0.91363,1.210469 -0.082,0.08536 -0.0857,0.08167 -0.11943,-0.118116 z"
           style="opacity:1;fill:#002255;fill-opacity:1;stroke:#2c5aa0;stroke-width:0.5;stroke-linecap:round;stroke-linejoin:round;stroke-miterlimit:4;stroke-dasharray:none;stroke-opacity:1" />
        <path
           id="path2843"
           d="m 132.52783,76.722184 c -0.0635,-0.761225 -0.46752,-3.175114 -0.5809,-3.470582 -0.0192,-0.05014 -0.0121,-0.0686 0.0191,-0.04932 0.0285,0.01762 0.42117,-0.473784 0.91753,-1.14823 0.47724,-0.648462 0.88118,-1.179732 0.89764,-1.180595 0.0165,-7.94e-4 0.0408,0.04627 0.054,0.104733 0.0133,0.05847 0.14228,0.563419 0.28674,1.122116 0.14446,0.558697 0.32954,1.341385 0.41128,1.739305 0.1304,0.634807 0.14028,0.733266 0.0806,0.803201 -0.0374,0.04384 -0.48872,0.589973 -1.0029,1.213633 -0.51419,0.62366 -0.96086,1.161888 -0.99262,1.196062 -0.046,0.04949 -0.0644,-0.0177 -0.0905,-0.330319 z"
           style="opacity:1;fill:#002255;fill-opacity:1;stroke:#2c5aa0;stroke-width:0.5;stroke-linecap:round;stroke-linejoin:round;stroke-miterlimit:4;stroke-dasharray:none;stroke-opacity:1" />
        <path
           id="path2845"
           d="m 132.67163,78.682881 c -0.0138,-0.04736 -0.0312,-0.321667 -0.0386,-0.609568 l -0.0135,-0.523454 1.06787,-1.281264 1.06788,-1.281263 0.0287,0.198319 c 0.1538,1.0635 0.35373,3.270101 0.30093,3.321327 -0.006,0.0057 -0.46784,0.05537 -1.02653,0.110316 -0.5587,0.05495 -1.09362,0.111564 -1.18872,0.125806 -0.14003,0.02098 -0.17767,0.0095 -0.19801,-0.06022 z"
           style="opacity:1;fill:#002255;fill-opacity:1;stroke:#2c5aa0;stroke-width:0.5;stroke-linecap:round;stroke-linejoin:round;stroke-miterlimit:4;stroke-dasharray:none;stroke-opacity:1" />
        <path
           id="path2847"
           d="m 134.00017,81.87808 c -0.4776,-0.04949 -1.36528,-0.222571 -1.42061,-0.276987 -0.0208,-0.02043 -0.0165,-0.258281 0.009,-0.528551 0.0259,-0.270269 0.0614,-0.832024 0.0787,-1.248343 l 0.0315,-0.756942 1.21402,-0.117128 1.21402,-0.117126 0.28965,0.853747 c 0.29316,0.864116 0.51598,1.391081 0.74284,1.756775 l 0.12464,0.200922 -0.11659,0.04433 c -0.44977,0.170998 -1.47789,0.260781 -2.16772,0.189302 z"
           style="opacity:1;fill:#002255;fill-opacity:1;stroke:#2c5aa0;stroke-width:0.5;stroke-linecap:round;stroke-linejoin:round;stroke-miterlimit:4;stroke-dasharray:none;stroke-opacity:1" />
      </g>
    </g>
  </g>
</svg>
