<?xml version="1.0" encoding="UTF-8" standalone="no"?>
<svg
   xmlns:dc="http://purl.org/dc/elements/1.1/"
   xmlns:cc="http://creativecommons.org/ns#"
   xmlns:rdf="http://www.w3.org/1999/02/22-rdf-syntax-ns#"
   xmlns:svg="http://www.w3.org/2000/svg"
   xmlns="http://www.w3.org/2000/svg"
   xmlns:sodipodi="http://sodipodi.sourceforge.net/DTD/sodipodi-0.dtd"
   xmlns:inkscape="http://www.inkscape.org/namespaces/inkscape"
   width="144.67267mm"
   height="129.08266mm"
   viewBox="0 0 144.67267 129.08266"
   version="1.1"
   id="svg8"
   inkscape:version="1.0 (4035a4fb49, 2020-05-01)"
   sodipodi:docname="title_image2.svg"
   inkscape:export-filename="C:\Users\Andrew\Dropbox\My PC (DESKTOP-83TOIOB)\Documents\4. Enriching Career\1.1 Long term plan for Career\Web-portfolio\title_image.png"
   inkscape:export-xdpi="96"
   inkscape:export-ydpi="96">
  <defs
     id="defs2" />
  <sodipodi:namedview
     fit-margin-bottom="0"
     fit-margin-right="0"
     fit-margin-left="0"
     fit-margin-top="0"
     id="base"
     pagecolor="#ffffff"
     bordercolor="#666666"
     borderopacity="1.0"
     inkscape:pageopacity="0.0"
     inkscape:pageshadow="2"
     inkscape:zoom="0.98994949"
     inkscape:cx="360.70719"
     inkscape:cy="375.61887"
     inkscape:document-units="mm"
     inkscape:current-layer="layer1"
     inkscape:document-rotation="0"
     showgrid="false"
     inkscape:window-width="1375"
     inkscape:window-height="1128"
     inkscape:window-x="11"
     inkscape:window-y="133"
     inkscape:window-maximized="0" />
  <metadata
     id="metadata5">
    <rdf:RDF>
      <cc:Work
         rdf:about="">
        <dc:format>image/svg+xml</dc:format>
        <dc:type
           rdf:resource="http://purl.org/dc/dcmitype/StillImage" />
        <dc:title></dc:title>
      </cc:Work>
    </rdf:RDF>
  </metadata>
  <g
     transform="translate(-20.124618,-21.727238)"
     inkscape:label="Layer 1"
     inkscape:groupmode="layer"
     id="layer1">
    <path
       style="fill:#000000;stroke:#333333;stroke-width:0.477237;stroke-linecap:round;stroke-linejoin:round;stroke-miterlimit:4;stroke-dasharray:none"
       d=""
       id="path998"
       transform="scale(0.26458333)" />
    <path
       style="fill:#002255;stroke:#2c5aa0;stroke-width:1.21848;stroke-linecap:round;stroke-linejoin:round;stroke-miterlimit:4;stroke-dasharray:none;stroke-opacity:1"
       d="m 97.926915,149.49728 -11.57607,-0.3395 1.60999,-2.67888 c 0.88549,-1.47339 2.00687,-3.81347 2.49196,-5.20018 0.77055,-2.2028 0.88387,-3.03886 0.897,-6.61841 0.0176,-4.80314 -0.56551,-7.03303 -3.0394,-11.62274 -2.730398,-5.0656 -6.203558,-9.25957 -14.778038,-17.84497 -7.13583,-7.144913 -9.96993,-10.296563 -12.05022,-13.400383 -1.66314,-2.48143 -2.31562,-3.05424 -2.73697,-2.40272 -0.15685,0.24254 0.93434,2.16153 2.57932,4.53604 l 0.60041,0.86671 h -2.44656 c -3.96596,0 -6.73954,-1.71364 -8.19002,-5.06013 l -0.42852,-0.98868 -3.17087,0.21689 c -4.44819,0.30425 -8.52471,-0.39795 -12.21809,-2.10463 -2.23421,-1.03241 -3.33326,-1.80846 -5.44995,-3.84827 -1.45826,-1.40529 -3.11642,-3.21465 -3.6848,-4.02079 -0.73818,-1.04697 -1.33159,-1.52829 -2.07716,-1.68478 -1.500157,-0.31488 -3.242105,-1.89047 -3.490818,-3.15744 -0.259043,-1.31958 1.26857,-5.82216 2.418359,-7.12802 0.432236,-0.49091 1.405669,-1.0655 2.163169,-1.27686 1.52569,-0.42571 1.85945,-0.73036 1.86691,-1.70409 0.008,-1.10319 1.90437,-4.36677 2.97709,-5.1247 1.45731,-1.02966 3.12272,-1.51605 6.73922,-1.96822 3.09238,-0.38665 3.1859,-0.42189 2.99982,-1.13041 -0.10564,-0.40223 -1.0796,-2.02303 -2.16436,-3.60179 -1.71011,-2.48886 -1.9723,-3.06908 -1.9723,-4.3645 0,-1.14007 0.22098,-1.78524 0.93276,-2.72318 0.91259,-1.20257 2.53165,-2.69121 3.98515,-3.66414 l 0.72784,-0.48719 -1.06813,-1.44818 c -1.26535,-1.71557 -1.21382,-1.87882 1.51847,-4.81014 2.86126,-3.069693 6.47889,-4.529063 11.22707,-4.529063 2.09604,0 2.13668,-0.0167 3.51186,-1.44243 0.76519,-0.79334 1.7997,-1.64427 2.2989,-1.89097 1.06384,-0.52574 3.12038,-0.57507 5.55785,-0.13331 l 1.73941,0.31525 1.45847,-1.28476 c 3.61981,-3.18868 7.18739,-2.9643 15.89408,0.99962 2.24796,1.02343 4.200198,1.86079 4.338308,1.86079 0.13812,0 0.62803,-0.61462 1.08868,-1.36581 0.94797,-1.54585 2.95102,-3.38321 4.54953,-4.17318 2.51111,-1.24098 6.771905,-0.83883 10.562685,0.99693 1.11941,0.54209 2.11662,0.76045 3.47683,0.76128 3.15665,0.002 4.5711,1.22479 5.21527,4.50879 0.18629,0.94974 0.34773,1.15463 0.77224,0.98009 2.77466,-1.14081 4.93659,-1.7081 6.50953,-1.7081 1.9902,0 2.79518,0.29206 4.16188,1.51002 0.78893,0.70308 1.00572,0.75697 1.74688,0.43424 1.12165,-0.48839 2.57377,-0.46589 3.87626,0.0601 1.29061,0.52117 5.3966,4.130043 6.03863,5.307543 0.67607,1.23992 0.59246,1.61876 -0.71995,3.26187 l -1.18397,1.48231 1.49567,1.31228 c 1.76887,1.55199 2.31246,2.67484 1.85348,3.82853 -0.44246,1.11217 -0.46792,1.0819 0.91507,1.08802 1.82258,0.008 5.43477,0.80291 6.89053,1.51622 2.26473,1.10971 3.68624,3.17767 4.37395,6.36306 0.29468,1.36491 0.61226,1.91966 1.47604,2.57833 1.68629,1.28586 3.13103,3.59043 3.38135,5.39372 0.16249,1.17069 0.5057,1.88324 1.32396,2.7488 1.22537,1.2962 1.3332,1.91043 0.62125,3.53883 l -0.48336,1.10553 2.12873,0.12954 c 3.71077,0.22581 4.84427,1.66505 4.17137,5.29654 -0.20916,1.12876 -0.46574,2.34408 -0.5702,2.70072 -0.15899,0.54284 0.0143,0.6968 1.06411,0.94549 1.12964,0.2676 1.2768,0.42209 1.4838,1.55771 0.3858,2.11661 -1.18196,3.49467 -5.58136,4.90602 -1.13453,0.36396 -2.69277,1.16783 -3.46274,1.78636 -3.93584,3.16173 -8.5576,3.38609 -14.1525,0.68702 -1.04726,-0.50522 -2.08146,-0.91857 -2.29822,-0.91857 -0.21677,0 -1.99866,0.99984 -3.95976,2.22188 -1.9611,1.22204 -4.79314,2.81005 -6.29343,3.52889 -2.02843,0.97191 -3.79863,2.22217 -6.90443,4.87648 -7.27674,6.218943 -11.33151,11.018073 -14.32057,16.949473 -4.29991,8.53264 -4.788,17.4182 -1.58405,28.83737 1.01013,3.60019 1.37056,4.17912 3.34791,5.37752 0.8401,0.50916 1.3129,0.90122 1.05066,0.87127 -0.26224,-0.0299 -5.68605,-0.20722 -12.052895,-0.39395 z m 2.459445,-37.05594 c 2.96597,-11.11705 4.66454,-18.390383 4.66454,-19.973623 0,-0.52036 -0.18112,-0.8271 -0.4884,-0.8271 -0.52382,0 -0.58749,0.19725 -1.20179,3.723 -0.35811,2.05531 -0.50622,2.35649 -1.36848,2.78261 -0.94188,0.46547 -6.672125,1.32369 -6.956875,1.04193 -0.0785,-0.0776 0.11609,-1.27581 0.43242,-2.66252 0.31633,-1.38672 0.68006,-3.4077 0.8083,-4.49107 0.21875,-1.84804 0.19139,-1.96976 -0.44279,-1.96976 -0.53571,0 -0.67595,0.20223 -0.67595,0.97477 0,3.2588 -2.22685,10.417583 -4.97875,16.005383 -1.5648,3.17738 -1.59435,3.29082 -1.0367,3.98028 0.3157,0.39033 1.25184,1.5423 2.0803,2.55992 1.96494,2.4136 3.65281,5.13595 4.76208,7.68073 0.98893,2.26871 1.17134,2.60979 1.31748,2.46349 0.0548,-0.0549 1.44288,-5.13449 3.084615,-11.28804 z m -14.719033,-5.52553 c 0.733498,-0.26899 0.14853,-4.09322 -1.04534,-6.83386 -0.81903,-1.880173 -3.10337,-5.927823 -4.92003,-8.717873 -0.18738,-0.28778 -0.45606,-0.3409 -0.79709,-0.15758 -0.43368,0.23313 -0.15707,0.87014 1.76231,4.05849 1.25221,2.08007 2.2793,3.95923 2.28243,4.17591 0.007,0.50701 -2.52683,0.51897 -6.19422,0.0293 -2.66734,-0.3562 -2.77282,-0.40341 -4.13457,-1.85085 -0.76857,-0.81693 -1.9113,-2.20903 -2.53939,-3.09354 -1.21286,-1.70801 -1.54186,-1.91216 -1.84895,-1.14739 -0.45981,1.14512 4.85475,6.992453 8.78669,9.667553 2.13704,1.45393 7.07391,3.99937 7.80542,4.02446 0.21189,0.007 0.59112,-0.0623 0.84274,-0.15454 z m 25.707663,-8.152333 c 3.82451,-4.89442 5.4312,-7.60114 4.88521,-8.22986 -0.33714,-0.3882 -0.82722,-0.0789 -3.13382,1.97802 -1.50381,1.341 -3.19396,2.69439 -3.75591,3.00754 l -1.02171,0.56935 v -2.06637 c 0,-1.62668 -0.10526,-2.06638 -0.49467,-2.06638 -0.35791,0 -0.50211,0.37036 -0.52156,1.33944 -0.0147,0.73669 -0.13966,3.11223 -0.27751,5.27897 -0.26315,4.136133 -0.0667,5.098943 0.88617,4.343193 0.27186,-0.21561 1.81707,-2.08487 3.4338,-4.153903 z m -20.695925,-0.32285 c 0.43861,-0.88604 1.09038,-2.74305 1.44837,-4.1267 1.15602,-4.46805 1.134,-4.24912 0.42746,-4.24912 -0.53152,0 -0.75059,0.47433 -1.33022,2.88015 -0.38165,1.58408 -1.00019,3.53415 -1.37455,4.33348 l -0.68065,1.45333 -1.82202,-4.33348 c -1.00212,-2.38342 -1.959758,-4.33348 -2.128088,-4.33348 -0.79118,0 -0.49661,1.22926 1.420418,5.9277 1.95589,4.793673 2.102,5.044873 2.65579,4.565933 0.32231,-0.27875 0.94488,-1.231773 1.38349,-2.117813 z m 30.682835,-5.51065 c 2.75463,-1.19364 4.69258,-2.48643 7.43962,-4.96294 1.68706,-1.52093 2.19387,-2.1704 2.064,-2.64501 -0.14653,-0.53548 -0.35011,-0.59811 -1.36845,-0.42098 -1.36661,0.2377 -4.42987,1.68432 -7.792,3.67978 -1.79115,1.06305 -2.47043,1.68305 -3.03105,2.76648 -1.42441,2.75276 -0.82583,3.10521 2.68788,1.58267 z m 12.64026,-4.04358 c 1.65244,-0.68792 2.05445,-0.99112 1.97872,-1.49233 -0.10808,-0.71521 -2.56025,-2.14326 -3.09847,-1.80442 -0.39557,0.24903 -1.49036,4.15997 -1.16452,4.16003 0.11578,2e-5 1.1437,-0.38845 2.28427,-0.86328 z"
       id="path885-2" />
    <g
       id="g2061"
       transform="translate(2.896189,-40.425635)">
      <path
         sodipodi:nodetypes="ccccccccccccc"
         id="path926-6"
         d="m 109.97573,169.19988 0.99107,-0.89142 c 1.74447,1.69081 1.91839,-0.049 2.68172,-0.50141 l 1.39916,-0.11143 0.11659,-1.11427 0.99107,-1.28141 c 3.49926,-0.89926 1.61657,-2.69301 1.92384,-4.12279 l -0.99106,0.50142 c -0.74621,-1.62684 -1.8788,-2.27159 -4.02259,-2.56282 -3.98469,0.94417 -3.02436,3.02244 -4.48897,5.96134 l 0.93277,0.0557 c -0.65648,0.37143 -1.30339,0.74285 -1.80725,1.11427 z"
         style="fill:#002255;stroke:#5599ff;stroke-width:0.225673px;stroke-linecap:butt;stroke-linejoin:miter;stroke-opacity:1" />
      <path
         sodipodi:nodetypes="cccccccccc"
         id="path928-3"
         d="m 107.70208,166.24705 c -3.24864,-1.62168 -4.89681,-0.77204 -4.78046,0.44573 -1.41958,0.29106 -1.46978,1.08545 -0.87447,2.11711 -7.639214,8.92277 -2.326677,16.6812 -2.448531,17.66114 2.395091,0.0279 4.332811,-1.17397 6.587711,-1.94997 l 0.46639,-1.05855 c 1.80724,1.43588 3.61449,1.53309 5.42174,2.17282 1.18795,-0.55399 1.24742,-1.58729 1.04937,-2.72996 -0.37148,-0.93845 -1.15443,-2.08506 -4.13918,-4.34564 1.2624,-4.79005 0.87613,-6.62588 0.99108,-9.35985"
         style="fill:#002255;stroke:#5599ff;stroke-width:0.225673px;stroke-linecap:butt;stroke-linejoin:miter;stroke-opacity:1" />
      <path
         sodipodi:nodetypes="cccc"
         id="path930-3"
         d="m 109.85913,170.59272 c -0.54868,-0.52109 -0.7759,-1.22651 -2.04045,-1.33713 -1.69762,0.64619 -1.44834,0.71158 -2.04043,1.2257 -2.14513,7.40372 -0.44206,10.18015 0.87447,12.98122"
         style="fill:#002255;stroke:#5599ff;stroke-width:0.225673px;stroke-linecap:butt;stroke-linejoin:miter;stroke-opacity:1" />
      <path
         sodipodi:nodetypes="ccccccccc"
         id="path932-0"
         d="m 113.12383,182.90537 c 0.43286,-0.29552 1.63484,-0.38414 1.74895,-0.16713 0.0485,0.35298 0.24334,0.42632 0.52469,0.33427 0.4256,0.14389 0.88013,0.16294 1.16597,0.64071 0.15124,0.20428 -0.003,0.32499 -0.2332,0.52927 0.25262,0.22285 0.23321,0.44571 -0.0583,0.66856 0.0804,0.18572 0.14839,0.37142 0,0.55714 l -2.21534,0.0557 -1.98214,0.11143"
         style="fill:#002255;stroke:#5599ff;stroke-width:0.225673px;stroke-linecap:butt;stroke-linejoin:miter;stroke-opacity:1" />
      <path
         sodipodi:nodetypes="csccccccccc"
         id="path936-9"
         d="m 108.28507,186.24818 c 0.36909,0.16937 0.57943,0.38425 1.01056,0.53583 0.3137,0.1103 0.74429,0.18708 1.43797,0.18843 l 7.62294,-0.14406 c 0.62862,0.0101 0.92569,0.14692 1.00521,0.36692 l 4.14211,0.19698 c 1.63523,0.11035 1.83631,1.65878 -0.3898,2.96517 l -3.8689,0.29207 -1.57405,0.38999 c -5.38027,0.2591 -10.53838,-0.11158 -15.88455,-0.77193 -1.822659,-0.40355 -2.270314,-2.46381 -2.187941,-3.79655"
         style="fill:#002255;stroke:#5599ff;stroke-width:0.225673px;stroke-linecap:butt;stroke-linejoin:miter;stroke-opacity:1" />
      <path
         sodipodi:nodetypes="cc"
         id="path938-0"
         d="m 119.36175,187.1953 c 0.33158,1.09241 0.4767,2.2145 -0.11659,3.45422"
         style="fill:#002255;stroke:#5599ff;stroke-width:0.225673px;stroke-linecap:butt;stroke-linejoin:miter;stroke-opacity:1" />
      <path
         id="path940-8"
         d="m 106.18633,184.52106 1.20657,-0.51733"
         style="fill:#002255;stroke:#5599ff;stroke-width:0.225673px;stroke-linecap:butt;stroke-linejoin:miter;stroke-opacity:1" />
      <path
         id="path942-0"
         d="m 110.15485,185.18559 -0.16489,1.02427 0.82446,0.51214 9.10117,-0.16741 6.50027,-7.63273 -3.58535,-0.16714 -4.54727,5.0142 -1.7198,-0.0557"
         style="fill:#002255;stroke:#5599ff;stroke-width:0.225673px;stroke-linecap:butt;stroke-linejoin:miter;stroke-opacity:1" />
      <path
         sodipodi:nodetypes="ccccccc"
         id="path946-8"
         d="m 110.9668,185.34283 -0.0583,0.5432 8.8322,-0.16714 5.5092,-6.21203 -2.41892,-0.17148 -4.22537,4.80623 -2.1369,-0.0454"
         style="fill:#002255;stroke:#5599ff;stroke-width:0.225673px;stroke-linecap:butt;stroke-linejoin:miter;stroke-opacity:1" />
      <path
         id="path948-8"
         d="m 118.60562,184.14161 1.13509,1.57728"
         style="fill:#002255;stroke:#5599ff;stroke-width:0.225673px;stroke-linecap:butt;stroke-linejoin:miter;stroke-opacity:1" />
      <path
         sodipodi:nodetypes="ccc"
         id="path950-2"
         d="m 111.10298,180.22177 c 2.3995,-1.44869 5.06917,-4.27447 7.17283,-4.21529 1.45759,0.19052 2.6964,1.60425 3.71009,3.46678"
         style="fill:#002255;stroke:#5599ff;stroke-width:0.225673px;stroke-linecap:butt;stroke-linejoin:miter;stroke-opacity:1" />
      <path
         sodipodi:nodetypes="ccc"
         id="path952-4"
         d="m 118.85294,182.97945 c -0.22612,-0.54671 -0.57554,-0.89749 -0.90691,-1.14247 -0.68639,0.60935 -1.22927,0.94441 -1.81382,1.35914"
         style="fill:none;stroke:#5599ff;stroke-width:0.225673px;stroke-linecap:butt;stroke-linejoin:miter;stroke-opacity:1" />
      <path
         sodipodi:nodetypes="cc"
         id="path954-0"
         d="m 122.5218,187.23414 c -0.28139,-0.21268 -1.02591,-1.03937 -1.52526,-1.77279"
         style="fill:#002255;stroke:#5599ff;stroke-width:0.225673px;stroke-linecap:butt;stroke-linejoin:miter;stroke-opacity:1" />
      <path
         sodipodi:nodetypes="ccc"
         id="path956-1"
         d="m 124.08827,181.83698 c 1.14432,1.67137 2.25437,3.2706 3.29786,4.84563 -1.52754,0.42361 -1.7467,1.48803 -2.55584,1.89097"
         style="fill:#002255;stroke:#5599ff;stroke-width:0.225673px;stroke-linecap:butt;stroke-linejoin:miter;stroke-opacity:1" />
      <path
         sodipodi:nodetypes="ccccccccc"
         id="path958-5"
         d="m 126.83852,186.94459 c 0.33039,0.37378 0.58283,0.71245 0.75788,0.86356 0.6088,-0.30302 0.74922,-0.65082 0.99107,-0.98891 0.23174,-0.26652 0.36437,-0.0279 0.48096,0.29249 l -0.0437,0.72427 c 1.37615,0.43633 2.54104,0.76366 3.4979,1.78283 0.31719,0.61939 -0.24371,0.77669 -0.72873,0.86356 l -7.6808,0.0279 c -0.25886,-0.19035 -0.28329,-0.38071 -0.2332,-0.57106"
         style="fill:#002255;stroke:#5599ff;stroke-width:0.225673px;stroke-linecap:butt;stroke-linejoin:miter;stroke-opacity:1" />
      <path
         sodipodi:nodetypes="cc"
         id="path960-1"
         d="m 125.13329,188.53242 c 0.45036,0.3293 1.3137,0.0228 2.46311,-0.72427"
         style="fill:#002255;stroke:#5599ff;stroke-width:0.225673px;stroke-linecap:butt;stroke-linejoin:miter;stroke-opacity:1" />
      <path
         id="path964-4"
         d="m 108.97905,167.60527 c -0.51846,-0.67448 -0.94265,-1.26621 -0.94265,-1.31495 0,-0.0487 0.41974,-0.33111 0.93277,-0.6275 0.51302,-0.29639 0.93277,-0.58214 0.93277,-0.63502 0,-0.0529 -0.22886,-0.0961 -0.50857,-0.0961 h -0.50858 l 0.32942,-0.97498 c 0.18118,-0.53625 0.43709,-1.33403 0.5687,-1.77286 0.32334,-1.07811 0.8407,-1.78756 1.63479,-2.24175 1.024,-0.58569 1.54183,-0.69055 2.44611,-0.49532 1.36871,0.29549 2.22039,0.86365 2.8222,1.88272 l 0.34818,0.58958 0.3507,-0.17331 c 0.19289,-0.0953 0.37938,-0.14591 0.41443,-0.11241 0.13145,0.12561 0.36909,1.76733 0.30214,2.08724 -0.10043,0.4799 -0.64412,0.94379 -1.4251,1.21592 -0.58866,0.20512 -0.74508,0.32589 -1.17281,0.90552 -0.33319,0.4515 -0.51868,0.83769 -0.57089,1.1885 l -0.0773,0.51968 -0.66529,0.0333 c -0.64654,0.0324 -0.68061,0.0504 -1.2083,0.6407 -0.64937,0.7264 -0.9135,0.76582 -1.53509,0.22915 l -0.4381,-0.37825 -0.46586,0.3766 c -0.25622,0.20712 -0.50076,0.37734 -0.54342,0.37825 -0.0427,8.8e-4 -0.50176,-0.55019 -1.02022,-1.22468 z"
         style="fill:#002255;stroke:#5599ff;stroke-width:0.4308;stroke-linecap:round;stroke-linejoin:round;stroke-miterlimit:4;stroke-dasharray:none;stroke-opacity:1" />
      <path
         id="path966-0"
         d="m 99.198049,184.63484 c -0.806785,-2.33579 -0.962184,-3.10229 -1.035232,-5.10626 -0.07398,-2.02946 0.09543,-3.19533 0.726008,-4.99641 0.638399,-1.82342 1.434645,-3.19576 3.183305,-5.48645 0.13324,-0.17454 0.12671,-0.2817 -0.0431,-0.70652 -0.29439,-0.73667 -0.17258,-1.03955 0.53258,-1.32426 0.49697,-0.20066 0.57769,-0.27686 0.57769,-0.54541 0,-0.40844 0.33462,-0.71516 0.95577,-0.87611 0.6035,-0.15637 1.74444,0.0425 2.79573,0.48722 0.60652,0.25659 0.7544,0.39919 1.77373,1.71044 1.01332,1.30351 1.11239,1.47504 1.11587,1.93194 l 0.004,0.50142 -0.35528,-0.36225 c -0.7645,-0.77952 -1.3961,-0.91101 -2.35301,-0.48988 -1.05611,0.46479 -1.42208,0.88675 -1.70547,1.9664 -0.87995,3.35241 -1.00089,6.20614 -0.3639,8.58633 0.12848,0.48008 0.50109,1.46853 0.82801,2.19655 l 0.5944,1.32368 -0.19494,0.48782 c -0.12246,0.30643 -0.28969,0.51603 -0.44973,0.56367 -0.14013,0.0417 -0.98939,0.36736 -1.88723,0.72367 -1.69595,0.67304 -2.4988,0.91172 -3.51202,1.04413 l -0.597197,0.078 z"
         style="fill:#002255;stroke:#5599ff;stroke-width:0.4308;stroke-linecap:round;stroke-linejoin:round;stroke-miterlimit:4;stroke-dasharray:none;stroke-opacity:1" />
      <path
         id="path968-9"
         d="m 110.42663,184.97269 c -1.73435,-0.50854 -2.84662,-0.99713 -3.37929,-1.48444 -0.43043,-0.39378 -1.34536,-2.38335 -1.69249,-3.68046 -0.62446,-2.33334 -0.52658,-4.95298 0.30391,-8.13359 0.33574,-1.28583 0.49557,-1.49162 1.522,-1.95977 0.7115,-0.32451 0.73105,-0.32694 1.19717,-0.1487 0.28307,0.10823 0.66897,0.40389 0.95843,0.73428 l 0.48456,0.5531 -0.0709,1.63563 c -0.0765,1.76553 -0.30334,3.43096 -0.66777,4.90367 -0.12631,0.51044 -0.228,1.01186 -0.22597,1.11427 0.002,0.1024 0.5036,0.58733 1.1146,1.07761 2.38309,1.91224 3.26238,3.25822 3.02089,4.62426 -0.0828,0.46839 -0.65847,1.23353 -0.9157,1.21711 -0.0735,-0.005 -0.81575,-0.20853 -1.64942,-0.45297 z"
         style="fill:#002255;stroke:#5599ff;stroke-width:0.4308;stroke-linecap:round;stroke-linejoin:round;stroke-miterlimit:4;stroke-dasharray:none;stroke-opacity:1" />
      <path
         id="path970-7"
         d="m 111.18451,190.89279 c -4.14172,-0.15546 -9.12387,-0.6709 -9.8948,-1.02368 -0.80474,-0.36826 -1.319356,-1.27125 -1.488495,-2.61187 l -0.07225,-0.57262 0.626665,-0.0774 c 1.36493,-0.16864 2.2292,-0.45521 6.11843,-2.02871 l 0.9445,-0.38213 0.39636,0.21907 c 0.21801,0.12048 0.79522,0.35272 1.2827,0.51607 l 0.88632,0.297 -0.0942,0.46498 c -0.0518,0.25575 -0.0965,0.49767 -0.0993,0.53762 -0.003,0.0399 0.16545,0.17699 0.37387,0.30454 l 0.37894,0.23192 -0.4254,0.002 c -0.25033,0.001 -0.6989,-0.13562 -1.08998,-0.33222 -0.61222,-0.30776 -0.87486,-0.34461 -0.87486,-0.12275 0,0.0479 0.27546,0.23301 0.61214,0.41128 l 0.61213,0.32413 h 4.78046 c 2.62926,0 4.8418,0.0381 4.91678,0.0846 0.17626,0.10936 0.38837,1.05926 0.38837,1.73923 0,0.29229 -0.0778,0.78187 -0.17294,1.08797 l -0.17295,0.55655 -0.84727,0.18024 c -1.04464,0.22222 -4.10569,0.30619 -7.0852,0.19435 z"
         style="fill:#002255;stroke:#5599ff;stroke-width:0.4308;stroke-linecap:round;stroke-linejoin:round;stroke-miterlimit:4;stroke-dasharray:none;stroke-opacity:1" />
      <path
         id="path972-7"
         d="m 115.63356,182.97553 c -0.15021,-0.0575 -0.32426,-0.0744 -0.38678,-0.0374 -0.0625,0.0369 -0.14217,-0.037 -0.17698,-0.16418 -0.0812,-0.29659 -0.62265,-0.39941 -1.317,-0.25007 -0.28684,0.0617 -0.52673,0.10244 -0.53309,0.0906 -0.30501,-0.56968 -0.76354,-1.1955 -1.24416,-1.69806 -0.60616,-0.63383 -0.60924,-0.64069 -0.35859,-0.79974 0.13905,-0.0882 0.92501,-0.66282 1.74658,-1.27686 2.51748,-1.88157 3.57046,-2.49046 4.52254,-2.61517 1.06707,-0.13978 2.40233,0.83805 3.45356,2.52907 0.29356,0.47223 0.44048,0.82005 0.38402,0.90917 -0.0503,0.0794 -0.69309,0.80846 -1.42843,1.62017 l -1.33699,1.47583 -0.19856,-0.30585 c -0.10921,-0.16822 -0.33099,-0.42228 -0.49285,-0.56457 l -0.29429,-0.25872 -0.99269,0.73228 c -0.54598,0.40275 -1.0108,0.7291 -1.03294,0.72522 -0.0221,-0.004 -0.16314,-0.0541 -0.31335,-0.11164 z"
         style="fill:#002255;stroke:#5599ff;stroke-width:0.4308;stroke-linecap:round;stroke-linejoin:round;stroke-miterlimit:4;stroke-dasharray:none;stroke-opacity:1" />
      <path
         id="path974-5"
         d="m 113.05806,185.03433 c 0.23244,-0.35735 0.28349,-0.58172 0.28349,-1.24598 v -0.81014 l 0.40808,-0.10851 c 0.62938,-0.16734 0.90851,-0.13549 0.99107,0.11311 0.0407,0.12257 0.13607,0.23049 0.21191,0.23982 0.0758,0.009 0.19035,0.0286 0.25448,0.0429 0.0641,0.0142 0.23173,0.0317 0.37244,0.0387 0.14071,0.007 0.40256,0.13347 0.58189,0.28088 0.31144,0.25601 0.31703,0.27755 0.12469,0.48065 -0.15113,0.1596 -0.16809,0.24443 -0.068,0.34011 0.10012,0.0957 0.0973,0.169 -0.0112,0.29398 -0.0795,0.0916 -0.1105,0.26921 -0.0688,0.39472 0.0723,0.21765 0.0304,0.2282 -0.90604,0.2282 -0.54001,0 -1.31385,0.0332 -1.71965,0.0737 l -0.73783,0.0737 z"
         style="fill:#002255;stroke:#5599ff;stroke-width:0.4308;stroke-linecap:round;stroke-linejoin:round;stroke-miterlimit:4;stroke-dasharray:none;stroke-opacity:1" />
      <path
         id="path976-0"
         d="m 110.57238,186.36237 c -0.25787,-0.16069 -0.32065,-0.28361 -0.32065,-0.62787 0,-0.34748 0.0384,-0.42112 0.20405,-0.39113 0.12995,0.0235 0.2165,0.15798 0.23835,0.3703 l 0.0343,0.33337 1.53975,-0.0274 c 0.84686,-0.0151 2.90392,-0.0582 4.57126,-0.0958 l 3.03151,-0.0684 2.60981,-2.9443 c 1.4354,-1.61936 2.63398,-2.9212 2.66351,-2.89298 0.0295,0.0282 -1.16621,1.48402 -2.65722,3.2351 l -2.71092,3.18379 -1.75984,2.2e-4 c -0.96791,1.4e-4 -2.96661,0.0283 -4.44156,0.0626 -2.44797,0.0569 -2.70967,0.0449 -3.00236,-0.13749 z"
         style="fill:#002255;stroke:#5599ff;stroke-width:0.4308;stroke-linecap:round;stroke-linejoin:round;stroke-miterlimit:4;stroke-dasharray:none;stroke-opacity:1" />
      <path
         id="path978-9"
         d="m 116.47346,185.4615 c 0.0316,-0.10694 0.0921,-0.40755 0.13452,-0.66801 l 0.0771,-0.47356 h 0.91943 0.91942 l 0.40791,0.57884 c 0.22434,0.31836 0.39626,0.58717 0.38203,0.59734 -0.0142,0.0102 -0.67206,0.0503 -1.46185,0.0892 -1.33004,0.0655 -1.43175,0.0563 -1.37853,-0.12378 z"
         style="fill:#002255;stroke:#5599ff;stroke-width:0.4308;stroke-linecap:round;stroke-linejoin:round;stroke-miterlimit:4;stroke-dasharray:none;stroke-opacity:1" />
      <path
         id="path980-6"
         d="m 119.3107,184.81678 c -0.2884,-0.39439 -0.41068,-0.65969 -0.34969,-0.75868 0.0516,-0.0837 0.95949,-1.13711 2.01758,-2.34087 1.92109,-2.18556 1.92447,-2.18864 2.39023,-2.18039 0.25653,0.005 0.6925,0.0421 0.96881,0.0836 l 0.50239,0.0753 -2.46766,2.78567 c -1.35722,1.53211 -2.50153,2.82081 -2.54293,2.86376 -0.0414,0.043 -0.27482,-0.19482 -0.51873,-0.52837 z"
         style="fill:#002255;stroke:#5599ff;stroke-width:0.4308;stroke-linecap:round;stroke-linejoin:round;stroke-miterlimit:4;stroke-dasharray:none;stroke-opacity:1" />
      <path
         id="path982-6"
         d="m 125.33293,179.65908 c 0.10613,-0.11207 0.19297,-0.23098 0.19297,-0.26424 0,-0.0333 -0.62987,-0.0964 -1.3997,-0.14032 -0.79196,-0.0452 -1.37117,-0.12396 -1.33398,-0.18146 0.075,-0.11604 1.96166,-0.12287 2.7021,-0.01 l 0.4931,0.0753 -0.29751,0.36214 c -0.16363,0.19917 -0.35431,0.36213 -0.42373,0.36213 -0.0694,0 -0.0394,-0.0917 0.0667,-0.20377 z"
         style="fill:#002255;stroke:#5599ff;stroke-width:0.4308;stroke-linecap:round;stroke-linejoin:round;stroke-miterlimit:4;stroke-dasharray:none;stroke-opacity:1" />
      <path
         id="path984-9"
         d="m 117.56472,183.99675 c -0.76564,-0.0115 -0.81415,-0.0166 -0.81415,-0.0865 0,-0.0497 0.0239,-0.0697 0.0721,-0.0606 0.0397,0.007 0.39958,0.0226 0.79978,0.0334 l 0.72765,0.0198 1.68391,-1.85739 c 0.92615,-1.02157 1.88339,-2.07663 2.12721,-2.34458 0.30667,-0.33702 0.45057,-0.46911 0.46686,-0.42854 0.0337,0.0839 -4.05903,4.733 -4.16838,4.73506 -0.0445,8.8e-4 -0.44723,-0.004 -0.89502,-0.0107 z"
         style="fill:#002255;stroke:#5599ff;stroke-width:0.152311;stroke-linecap:round;stroke-linejoin:round;stroke-miterlimit:4;stroke-dasharray:none;stroke-opacity:1" />
      <path
         id="path986-8"
         d="m 124.87062,188.25261 c -0.001,-0.21197 -0.12243,-0.44005 -0.3277,-0.61692 -0.31454,-0.27104 -0.61308,-0.34934 -1.53674,-0.40305 -0.27124,-0.0158 -0.40193,-0.0387 -0.40193,-0.0706 0,-0.026 -0.0853,-0.12625 -0.18967,-0.22285 -0.38482,-0.35634 -1.31573,-1.49622 -1.28636,-1.57512 0.0186,-0.0499 2.85339,-3.3834 2.87762,-3.38384 0.0211,-4.4e-4 1.59252,2.29037 2.60098,3.79152 l 0.56043,0.83423 -0.2105,0.0821 c -0.4921,0.19191 -1.1156,0.69143 -1.62631,1.30294 -0.0752,0.0901 -0.20926,0.21944 -0.29785,0.28747 l -0.16106,0.1237 -9.3e-4,-0.14959 z"
         style="fill:#002255;stroke:#5599ff;stroke-width:0.152311;stroke-linecap:round;stroke-linejoin:round;stroke-miterlimit:4;stroke-dasharray:none;stroke-opacity:1" />
      <path
         id="path988-1"
         d="m 119.51397,190.38429 c 0.0966,-0.24289 0.20382,-0.7144 0.24633,-1.08355 0.0532,-0.46179 0.005,-1.07465 -0.12636,-1.60743 -0.0449,-0.182 -0.0748,-0.33737 -0.0666,-0.34527 0.008,-0.008 0.93315,0.0299 2.05532,0.084 2.31854,0.11182 2.44259,0.13047 2.74719,0.41298 0.43956,0.40765 0.29134,1.02815 -0.40527,1.69656 -0.19272,0.18492 -0.48025,0.41793 -0.63896,0.51781 l -0.28856,0.18159 -1.71076,0.12369 c -0.94092,0.068 -1.74277,0.12325 -1.78189,0.1227 -0.0594,-8.8e-4 -0.0644,-0.0177 -0.0305,-0.10313 z"
         style="fill:#002255;stroke:#5599ff;stroke-width:0.152311;stroke-linecap:round;stroke-linejoin:round;stroke-miterlimit:4;stroke-dasharray:none;stroke-opacity:1" />
      <path
         id="path990-9"
         d="m 124.08533,190.30575 c -0.0299,-0.0344 -0.0646,-0.13305 -0.0772,-0.21927 -0.0216,-0.14748 -0.01,-0.16943 0.19451,-0.37099 0.25891,-0.25511 0.52758,-0.64101 0.59417,-0.85341 0.065,-0.20748 0.16274,-0.2525 0.35618,-0.16414 0.47838,0.21851 1.1907,0.024 2.27318,-0.62082 0.62938,-0.3749 0.8166,-0.53128 1.08902,-0.90964 l 0.24718,-0.3433 0.0763,0.10758 c 0.0652,0.0919 0.0747,0.17314 0.0651,0.55654 l -0.0112,0.44894 0.6381,0.205 c 1.46,0.46903 2.0978,0.79942 2.69135,1.39413 0.22351,0.22396 0.23859,0.25094 0.22673,0.40591 -0.0107,0.13973 -0.0339,0.17779 -0.14648,0.24041 -0.33154,0.1844 -0.33628,0.1846 -4.36481,0.18509 -3.41797,4.4e-4 -3.80321,-0.006 -3.85206,-0.062 z"
         style="fill:#002255;stroke:#5599ff;stroke-width:0.152311;stroke-linecap:round;stroke-linejoin:round;stroke-miterlimit:4;stroke-dasharray:none;stroke-opacity:1" />
      <path
         id="path992-6"
         d="m 125.33047,188.48398 c -0.11792,-0.0769 1.21809,-1.38554 1.41452,-1.38554 0.0268,0 0.18012,0.15676 0.34065,0.34837 l 0.29188,0.34837 -0.36695,0.20761 c -0.58116,0.3288 -0.99531,0.48486 -1.33399,0.50269 -0.15937,0.008 -0.31512,-0.001 -0.34611,-0.0215 z"
         style="fill:#002255;stroke:#5599ff;stroke-width:0.152311;stroke-linecap:round;stroke-linejoin:round;stroke-miterlimit:4;stroke-dasharray:none;stroke-opacity:1" />
      <path
         id="path994-3"
         d="m 111.066,185.61501 c 0.009,-0.14399 0.0146,-0.1541 0.0729,-0.13816 0.16259,0.0445 0.80465,0.24613 0.7985,0.25075 -0.004,0.003 -0.2037,0.0137 -0.44418,0.024 l -0.43724,0.0188 z"
         style="fill:#002255;stroke:#5599ff;stroke-width:0.1077;stroke-linecap:round;stroke-linejoin:round;stroke-miterlimit:4;stroke-dasharray:none;stroke-opacity:1" />
      <path
         id="path996-7"
         d="m 113.44619,185.68536 c 0.57832,-0.0431 2.75708,-0.0931 2.78754,-0.064 0.0392,0.0374 -0.54139,0.0594 -1.95679,0.0741 -0.66066,0.007 -1.00235,0.003 -0.83075,-0.0101 z"
         style="fill:#002255;stroke:#5599ff;stroke-width:0.1077;stroke-linecap:round;stroke-linejoin:round;stroke-miterlimit:4;stroke-dasharray:none;stroke-opacity:1" />
    </g>
  </g>
</svg>
